<svg id="Layer_1" enable-background="new 0 0 511.448 511.448" height="512" viewBox="0 0 511.448 511.448" width="512" xmlns="http://www.w3.org/2000/svg"><path d="m436.507 74.94c-99.913-99.913-261.64-99.927-361.567 0-99.913 99.913-99.928 261.64 0 361.567 99.913 99.913 261.639 99.928 361.567 0 99.914-99.911 99.93-261.639 0-361.567zm-180.783 394.451c-117.816 0-213.667-95.851-213.667-213.666s95.851-213.667 213.667-213.667 213.667 95.851 213.667 213.667-95.851 213.666-213.667 213.666z"/><path d="m398.573 208.875c-8.201-8.201-21.498-8.201-29.699 0l-17.15 17.15-17.15-17.15c-8.201-8.201-21.498-8.201-29.699 0-8.2 8.201-8.2 21.498 0 29.698l17.151 17.151-17.151 17.151c-8.2 8.201-8.2 21.498 0 29.698 8.201 8.201 21.498 8.201 29.699 0l17.15-17.15 17.15 17.15c8.201 8.201 21.498 8.201 29.699 0 8.2-8.201 8.2-21.498 0-29.698l-17.151-17.151 17.151-17.151c8.201-8.2 8.201-21.497 0-29.698z"/><path d="m232.851 131.969-69.19 49.421h-35.937c-11.598 0-21 9.402-21 21v106.667c0 11.598 9.402 21 21 21h35.937l69.19 49.421c13.871 9.908 33.207-.027 33.207-17.088v-213.332c0-17.046-19.323-27.007-33.207-17.089zm-8.794 189.615-41.461-29.615c-7.085-5.061-11.718-3.912-33.873-3.912v-64.667c21.661 0 26.742 1.182 33.873-3.912l41.461-29.615z"/></svg>