<svg id="Layer_1" enable-background="new 0 0 511.449 511.449" height="512" viewBox="0 0 511.449 511.449" width="512" xmlns="http://www.w3.org/2000/svg"><path d="m436.508 74.941c-99.913-99.913-261.639-99.928-361.566 0-99.914 99.912-99.93 261.64 0 361.567 99.913 99.913 261.639 99.928 361.566 0 99.913-99.912 99.929-261.64 0-361.567zm-180.784 394.45c-117.816 0-213.667-95.851-213.667-213.667s95.851-213.666 213.667-213.666 213.667 95.851 213.667 213.667-95.85 213.666-213.667 213.666z"/><path d="m332.617 239.148-96-74.667c-13.774-10.715-33.893-.863-33.893 16.577v149.333c0 17.563 20.25 27.186 33.893 16.577l96-74.667c10.796-8.398 10.809-24.745 0-33.153zm-87.893 48.305v-63.458l40.795 31.729z"/></svg>