<svg id="Layer_1" enable-background="new 0 0 511.448 511.448" height="512" viewBox="0 0 511.448 511.448" width="512" xmlns="http://www.w3.org/2000/svg"><path d="m436.508 74.94c-99.913-99.913-261.64-99.928-361.567 0-99.913 99.913-99.928 261.64 0 361.567 99.913 99.913 261.64 99.928 361.567 0 99.912-99.912 99.927-261.639 0-361.567zm-180.784 394.45c-117.816 0-213.667-95.851-213.667-213.667s95.851-213.666 213.667-213.666 213.666 95.851 213.666 213.667-95.85 213.666-213.666 213.666z"/><path d="m270.569 206.577c6.929-6.925 8.269-18.069 2.619-26.512-1.651-2.469-.337-.913-34.615-35.19-8.201-8.201-21.497-8.201-29.698 0-7.017 7.017-8.01 17.755-3.019 25.849h-24.799c-46.869 0-85 38.131-85 85s38.131 85 85 85c11.598 0 21-9.402 21-21s-9.402-21-21-21c-23.71 0-43-19.29-43-43s19.29-43 43-43h24.799c-8.645 14.021 1.52 32 17.868 32 5.375 0 10.749-2.05 14.849-6.151z"/><path d="m330.39 170.724c-11.598 0-21 9.402-21 21s9.402 21 21 21c23.71 0 43 19.29 43 43s-19.29 43-43 43h-24.798c4.991-8.094 3.998-18.833-3.019-25.849-8.201-8.201-21.497-8.201-29.698 0l-31.996 31.996c-6.878 6.875-8.308 18.016-2.619 26.511 1.577 2.359-.042.534 34.615 35.191 8.201 8.201 21.497 8.201 29.698 0 7.017-7.017 8.01-17.755 3.019-25.849h24.798c46.869 0 85-38.131 85-85s-38.13-85-85-85z"/></svg>