<svg id="Layer_1" enable-background="new 0 0 511.449 511.449" height="512" viewBox="0 0 511.449 511.449" width="512" xmlns="http://www.w3.org/2000/svg"><path d="m436.508 74.941c-99.912-99.914-261.639-99.93-361.566 0-99.914 99.912-99.93 261.639 0 361.566 99.912 99.914 261.639 99.93 361.566 0 99.913-99.911 99.929-261.638 0-361.566zm-180.784 394.45c-117.816 0-213.667-95.851-213.667-213.667s95.851-213.667 213.667-213.667 213.667 95.851 213.667 213.667-95.85 213.667-213.667 213.667z"/><path d="m232.851 131.97-69.189 49.422h-35.938c-11.598 0-21 9.402-21 21v106.666c0 11.598 9.402 21 21 21h35.938l69.189 49.422c13.872 9.909 33.206-.027 33.206-17.088v-213.335c0-17.045-19.322-27.006-33.206-17.087zm-8.794 189.614-41.46-29.614c-7.084-5.062-11.719-3.912-33.873-3.912v-64.666c21.663 0 26.744 1.182 33.873-3.912l41.46-29.614z"/><path d="m319.724 202.724c-11.598 0-21 9.402-21 21v64c0 11.598 9.402 21 21 21s21-9.402 21-21v-64c0-11.597-9.402-21-21-21z"/><path d="m383.724 170.724c-11.598 0-21 9.402-21 21v128c0 11.598 9.402 21 21 21s21-9.402 21-21v-128c0-11.597-9.402-21-21-21z"/></svg>