<svg id="Layer_1" enable-background="new 0 0 511.449 511.449" height="512" viewBox="0 0 511.449 511.449" width="512" xmlns="http://www.w3.org/2000/svg"><path d="m436.508 74.941c-99.912-99.914-261.64-99.93-361.567 0-99.913 99.913-99.928 261.639 0 361.566 99.912 99.914 261.64 99.93 361.567 0 99.913-99.912 99.928-261.638 0-361.566zm-180.784 394.45c-117.816 0-213.667-95.851-213.667-213.667s95.852-213.667 213.667-213.667 213.667 95.851 213.667 213.667-95.851 213.667-213.667 213.667z"/><path d="m255.724 192.057c-35.106 0-63.667 28.561-63.667 63.667s28.561 63.667 63.667 63.667 63.667-28.561 63.667-63.667-28.561-63.667-63.667-63.667zm0 85.334c-11.947 0-21.667-9.72-21.667-21.667s9.72-21.667 21.667-21.667 21.667 9.72 21.667 21.667-9.72 21.667-21.667 21.667z"/><path d="m255.724 96.057c-11.598 0-21 9.402-21 21s9.402 21 21 21c64.881 0 117.667 52.785 117.667 117.667 0 11.598 9.402 21 21 21s21-9.402 21-21c0-88.041-71.626-159.667-159.667-159.667z"/><path d="m255.724 373.391c-64.881 0-117.667-52.785-117.667-117.667 0-11.598-9.402-21-21-21s-21 9.402-21 21c0 88.041 71.626 159.667 159.667 159.667 11.598 0 21-9.402 21-21s-9.401-21-21-21z"/></svg>