<svg id="Layer_1" enable-background="new 0 0 511.334 511.334" height="512" viewBox="0 0 511.334 511.334" width="512" xmlns="http://www.w3.org/2000/svg"><path d="m438.334 32h-365.334c-40.252 0-73 32.748-73 73v301.334c0 40.252 32.748 73 73 73h365.334c40.252 0 73-32.748 73-73v-301.334c0-40.252-32.748-73-73-73zm31 374.334c0 17.094-13.906 31-31 31h-365.334c-17.094 0-31-13.906-31-31v-301.334c0-17.094 13.906-31 31-31h365.334c17.094 0 31 13.906 31 31z"/><path d="m405 106.667c-11.598 0-21 9.402-21 21v202.667c0 17.828-14.505 32.333-32.333 32.333-11.598 0-21 9.402-21 21s9.402 21 21 21c40.987 0 74.333-33.346 74.333-74.333v-202.667c0-11.598-9.402-21-21-21z"/><path d="m213 106.667c-70.396 0-127.666 57.271-127.666 127.667s57.27 127.666 127.666 127.666 127.667-57.271 127.667-127.666-57.271-127.667-127.667-127.667zm0 213.333c-47.236 0-85.666-38.43-85.666-85.666 0-47.237 38.43-85.667 85.666-85.667 47.237 0 85.667 38.43 85.667 85.667 0 47.236-38.43 85.666-85.667 85.666z"/><path d="m127.667 362.667h-21.333c-11.598 0-21 9.402-21 21s9.402 21 21 21h21.333c11.598 0 21-9.402 21-21s-9.402-21-21-21z"/><circle cx="213" cy="234.334" r="21.333"/></svg>