<svg id="Layer_1" enable-background="new 0 0 511.443 511.443" height="512" viewBox="0 0 511.443 511.443" width="512" xmlns="http://www.w3.org/2000/svg"><path d="m436.511 74.946c-99.915-99.917-261.638-99.932-361.568 0-99.917 99.917-99.931 261.637 0 361.568 70.894 70.895 172.63 91.293 261.183 61.982 11.011-3.646 16.982-15.525 13.337-26.536-3.644-11.011-15.526-16.982-26.535-13.337-138.207 45.75-280.871-57.723-280.871-202.892 0-117.818 95.852-213.67 213.67-213.67 145.027 0 248.697 142.505 202.894 280.87-3.645 11.011 2.326 22.892 13.337 26.536 11.012 3.643 22.891-2.327 26.535-13.337 29.245-88.348 9.112-190.09-61.982-261.184z"/><path d="m236.62 164.487c-13.773-10.715-33.893-.866-33.893 16.576v149.334c0 17.431 20.111 27.295 33.893 16.576l96-74.667c10.795-8.396 10.81-24.746 0-33.152zm8.107 122.973v-63.459l40.795 31.729z"/><path d="m458.394 394.731h-21.667v-21.667c0-11.598-9.402-21-21-21s-21 9.402-21 21v21.667h-21.667c-11.598 0-21 9.402-21 21s9.402 21 21 21h21.667v21.667c0 11.598 9.402 21 21 21s21-9.402 21-21v-21.667h21.667c11.598 0 21-9.402 21-21s-9.402-21-21-21z"/></svg>