<svg id="Layer_1" enable-background="new 0 0 511.334 511.334" height="512" viewBox="0 0 511.334 511.334" width="512" xmlns="http://www.w3.org/2000/svg"><path d="m330.334 426.667h-257.334c-17.093 0-31-13.906-31-31v-322.667c0-17.094 13.907-31 31-31h322.667c17.094 0 31 13.906 31 31v225.334c0 11.598 9.402 21 21 21s21-9.402 21-21v-225.334c0-40.252-32.748-73-73-73h-322.667c-40.252 0-73 32.748-73 73v322.667c0 40.252 32.748 73 73 73h257.333c11.598 0 21-9.402 21-21s-9.402-21-20.999-21z"/><path d="m254.392 140.884c-13.936-6.965-30.392 3.175-30.392 18.783v64.333h-21.667c-35.106 0-63.667 28.561-63.667 63.667s28.561 63.667 63.667 63.667 63.667-28.561 63.667-63.667c0-93.075.001-9.553.001-94.021l33.607 16.805c10.373 5.185 22.987.981 28.175-9.392 5.187-10.374.981-22.987-9.392-28.175zm-30.392 146.783c0 11.947-9.72 21.667-21.667 21.667s-21.667-9.72-21.667-21.667 9.72-21.667 21.667-21.667h21.667z"/><path d="m505.183 400.817-42.667-42.667c-8.201-8.201-21.498-8.201-29.699 0l-42.667 42.667c-3.938 3.938-6.15 9.28-6.15 14.85v74.667c0 11.598 9.402 21 21 21h85.334c11.598 0 21-9.402 21-21v-74.667c0-5.569-2.213-10.911-6.151-14.85zm-35.849 68.517h-43.334v-44.969l21.667-21.667 21.667 21.667z"/></svg>