<?xml version="1.0" encoding="iso-8859-1"?>
<!-- Generator: Adobe Illustrator 19.0.0, SVG Export Plug-In . SVG Version: 6.00 Build 0)  -->
<svg version="1.1" id="Capa_1" xmlns="http://www.w3.org/2000/svg" xmlns:xlink="http://www.w3.org/1999/xlink" x="0px" y="0px"
	 viewBox="0 0 512 512" style="enable-background:new 0 0 512 512;" xml:space="preserve">
<g>
	<g>
		<path d="M316,300c-8.276,0-15,6.724-15,15s6.724,15,15,15s15-6.724,15-15S324.276,300,316,300z"/>
	</g>
</g>
<g>
	<g>
		<path d="M196,330c-8.276,0-15,6.724-15,15s6.724,15,15,15s15-6.724,15-15S204.276,330,196,330z"/>
	</g>
</g>
<g>
	<g>
		<path d="M436,120H76c-8.291,0-15,6.709-15,15v300c0,8.291,6.709,15,15,15h360c8.291,0,15-6.709,15-15V135
			C451,126.709,444.291,120,436,120z M361,315c0,24.814-20.186,45-45,45c-24.814,0-45-20.186-45-45c0-24.814,20.186-45,45-45
			c5.284,0,10.285,1.082,15,2.763v-58.544l-90,22.5V345c0,24.814-20.186,45-45,45c-24.814,0-45-20.186-45-45
			c0-24.814,20.186-45,45-45c5.284,0,10.285,1.082,15,2.763V225c0-6.885,4.688-12.876,11.367-14.546l120-30
			c4.424-1.172,9.199-0.146,12.861,2.725C358.876,186.021,361,190.386,361,195V315z"/>
	</g>
</g>
<g>
	<g>
		<path d="M497,362h-16v105c0,8.291-6.709,15-15,15H46c-8.291,0-15-6.709-15-15V362H15c-8.291,0-15,6.709-15,15v120
			c0,8.291,6.709,15,15,15h482c8.291,0,15-6.709,15-15V377C512,368.709,505.291,362,497,362z"/>
	</g>
</g>
<g>
	<g>
		<path d="M406,60H106c-8.291,0-15,6.709-15,15v15h330V75C421,66.709,414.291,60,406,60z"/>
	</g>
</g>
<g>
	<g>
		<path d="M376,0H136c-8.291,0-15,6.709-15,15v15h270V15C391,6.709,384.291,0,376,0z"/>
	</g>
</g>
<g>
</g>
<g>
</g>
<g>
</g>
<g>
</g>
<g>
</g>
<g>
</g>
<g>
</g>
<g>
</g>
<g>
</g>
<g>
</g>
<g>
</g>
<g>
</g>
<g>
</g>
<g>
</g>
<g>
</g>
</svg>
