<?xml version="1.0" encoding="iso-8859-1"?>
<!-- Generator: Adobe Illustrator 19.0.0, SVG Export Plug-In . SVG Version: 6.00 Build 0)  -->
<svg version="1.1" id="Capa_1" xmlns="http://www.w3.org/2000/svg" xmlns:xlink="http://www.w3.org/1999/xlink" x="0px" y="0px"
	 viewBox="0 0 512 512" style="enable-background:new 0 0 512 512;" xml:space="preserve">
<g>
	<g>
		<path d="M301,270c-8.276,0-15,6.724-15,15s6.724,15,15,15s15-6.724,15-15S309.276,270,301,270z"/>
	</g>
</g>
<g>
	<g>
		<path d="M256,90c-90.981,0-166,74.019-166,165s75.019,167,166,167s166-76.019,166-167S346.981,90,256,90z M346,285
			c0,24.814-20.186,45-45,45c-24.814,0-45-20.186-45-45c0-24.814,20.186-45,45-45c5.284,0,10.285,1.082,15,2.763v-58.544l-90,22.5
			V315c0,24.814-20.186,45-45,45c-24.814,0-45-20.186-45-45c0-24.814,20.186-45,45-45c5.284,0,10.285,1.082,15,2.763V195
			c0-6.885,4.688-12.876,11.367-14.546l120-30C336.694,148.069,346,155.165,346,165V285z"/>
	</g>
</g>
<g>
	<g>
		<path d="M181,300c-8.276,0-15,6.724-15,15s6.724,15,15,15s15-6.724,15-15S189.276,300,181,300z"/>
	</g>
</g>
<g>
	<g>
		<path d="M256,0C115.39,0,0,114.39,0,255s115.39,257,256,257s256-116.39,256-257S396.61,0,256,0z M256,452
			c-107.52,0-196-89.48-196-197S148.48,60,256,60s196,87.48,196,195S363.52,452,256,452z"/>
	</g>
</g>
<g>
</g>
<g>
</g>
<g>
</g>
<g>
</g>
<g>
</g>
<g>
</g>
<g>
</g>
<g>
</g>
<g>
</g>
<g>
</g>
<g>
</g>
<g>
</g>
<g>
</g>
<g>
</g>
<g>
</g>
</svg>
