<svg id="Layer_1" enable-background="new 0 0 511.448 511.448" height="512" viewBox="0 0 511.448 511.448" width="512" xmlns="http://www.w3.org/2000/svg"><path d="m436.508 74.94c-99.913-99.913-261.64-99.928-361.567 0-99.913 99.913-99.928 261.64 0 361.567 99.913 99.913 261.64 99.928 361.567 0 99.912-99.912 99.927-261.639 0-361.567zm-180.784 394.45c-117.816 0-213.667-95.851-213.667-213.667s95.851-213.666 213.667-213.666 213.666 95.851 213.666 213.667-95.85 213.666-213.666 213.666z"/><path d="m356.621 128.865-149.333 42.667c-9.016 2.576-15.231 10.816-15.231 20.192v75h-16.333c-32.165 0-58.334 26.168-58.334 58.333s26.168 58.333 58.334 58.333 58.333-26.168 58.333-58.333c0-6.664 0-110.376 0-117.493l107.333-30.667v57.826h-16.333c-32.165 0-58.333 26.168-58.333 58.333s26.168 58.333 58.333 58.333 58.333-26.168 58.333-58.333c0-11.527 0-124.243 0-144 0-13.98-13.402-24.013-26.769-20.191zm-164.564 196.192c0 9.006-7.327 16.333-16.333 16.333s-16.333-7.327-16.333-16.333 7.327-16.333 16.333-16.333h16.333zm149.333-32c0 9.006-7.327 16.333-16.333 16.333s-16.333-7.327-16.333-16.333 7.327-16.333 16.333-16.333h16.333z"/></svg>