<svg id="Layer_1" enable-background="new 0 0 511.449 511.449" height="512" viewBox="0 0 511.449 511.449" width="512" xmlns="http://www.w3.org/2000/svg"><path d="m436.508 74.941c-99.913-99.913-261.639-99.928-361.566 0-99.914 99.912-99.93 261.64 0 361.567 99.913 99.913 261.639 99.928 361.566 0 99.913-99.912 99.929-261.64 0-361.567zm-180.784 394.45c-117.816 0-213.667-95.851-213.667-213.667s95.851-213.666 213.667-213.666 213.667 95.851 213.667 213.667-95.85 213.666-213.667 213.666z"/><path d="m339.783 162.275-64-32c-13.933-6.967-30.392 3.175-30.392 18.783v107h-21.667c-35.106 0-63.667 28.561-63.667 63.667s28.561 63.667 63.667 63.667 63.667-28.561 63.667-63.667c0-16.525 0-120.112 0-136.688l33.609 16.804c10.376 5.186 22.988.982 28.175-9.392s.981-22.987-9.392-28.174zm-94.392 157.449c0 11.947-9.72 21.667-21.667 21.667s-21.667-9.72-21.667-21.667 9.72-21.667 21.667-21.667h21.667z"/></svg>