<svg id="Layer_1" enable-background="new 0 0 511.449 511.449" height="512" viewBox="0 0 511.449 511.449" width="512" xmlns="http://www.w3.org/2000/svg"><path d="m436.508 74.941c-99.913-99.913-261.639-99.928-361.566 0-99.914 99.912-99.93 261.64 0 361.567 99.913 99.913 261.639 99.928 361.566 0 99.913-99.912 99.929-261.64 0-361.567zm-180.784 394.45c-117.816 0-213.667-95.851-213.667-213.667s95.851-213.666 213.667-213.666 213.667 95.851 213.667 213.667-95.85 213.666-213.667 213.666z"/><path d="m298.391 149.391c-11.598 0-21 9.402-21 21v170.667c0 11.598 9.402 21 21 21s21-9.402 21-21v-170.667c0-11.598-9.402-21-21-21z"/><path d="m383.724 213.391c-11.598 0-21 9.402-21 21v42.667c0 11.598 9.402 21 21 21s21-9.402 21-21v-42.667c0-11.598-9.402-21-21-21z"/><path d="m213.057 192.058c-11.598 0-21 9.402-21 21v85.333c0 11.598 9.402 21 21 21s21-9.402 21-21v-85.333c0-11.598-9.402-21-21-21z"/><path d="m127.724 224.058c-11.598 0-21 9.402-21 21v21.333c0 11.598 9.402 21 21 21s21-9.402 21-21v-21.333c0-11.598-9.402-21-21-21z"/></svg>