<svg id="Layer_1" enable-background="new 0 0 511.333 511.333" height="512" viewBox="0 0 511.333 511.333" width="512" xmlns="http://www.w3.org/2000/svg"><path d="m430.94 149.333h-350.547c-44.066 0-78.2 38.844-72.359 82.648l28.801 216c4.814 36.117 35.923 63.352 72.358 63.352h292.947c36.436 0 67.544-27.235 72.358-63.352l28.801-216c5.847-43.855-28.337-82.648-72.359-82.648zm30.728 77.097-28.801 216c-2.045 15.337-15.255 26.903-30.728 26.903h-292.946c-15.473 0-28.683-11.565-30.728-26.903l-28.801-216c-2.501-18.762 12.11-35.097 30.729-35.097h350.547c18.651 0 33.226 16.363 30.728 35.097z"/><path d="m84.999 116.667h341.334c11.598 0 21-9.402 21-21s-9.402-21-21-21h-341.334c-11.598 0-21 9.402-21 21s9.403 21 21 21z"/><path d="m116.999 42h277.334c11.598 0 21-9.402 21-21s-9.402-21-21-21h-277.334c-11.598 0-21 9.402-21 21s9.403 21 21 21z"/><path d="m313.748 366.733c38.603-48.319 4.228-120.642-58.082-120.642-62.297 0-96.696 72.31-58.082 120.642-11.607 5.919-22.494 13.719-32.192 23.417-8.2 8.201-8.2 21.498 0 29.698 8.201 8.201 21.498 8.201 29.699 0 33.4-33.401 87.75-33.401 121.15 0 8.201 8.201 21.498 8.201 29.699 0 8.2-8.201 8.2-21.498 0-29.698-9.698-9.698-20.585-17.497-32.192-23.417zm-58.082-78.642c17.828 0 32.333 14.505 32.333 32.333s-14.505 32.333-32.333 32.333-32.333-14.504-32.333-32.333 14.505-32.333 32.333-32.333z"/></svg>