<svg id="Layer_1" enable-background="new 0 0 511.449 511.449" height="512" viewBox="0 0 511.449 511.449" width="512" xmlns="http://www.w3.org/2000/svg"><path d="m436.508 74.941c-99.913-99.913-261.639-99.928-361.566 0-99.914 99.912-99.93 261.64 0 361.567 99.913 99.913 261.639 99.928 361.566 0 99.913-99.912 99.929-261.64 0-361.567zm-180.784 394.45c-117.816 0-213.667-95.851-213.667-213.667s95.851-213.666 213.667-213.666 213.667 95.851 213.667 213.667-95.85 213.666-213.667 213.666z"/><path d="m232.851 131.97-69.189 49.421h-35.938c-11.598 0-21 9.402-21 21v106.667c0 11.598 9.402 21 21 21h35.938l69.189 49.421c13.872 9.908 33.206-.027 33.206-17.088v-213.333c0-17.046-19.323-27.007-33.206-17.088zm-8.794 189.614-41.46-29.614c-7.085-5.061-11.719-3.912-33.873-3.912v-64.667c21.664 0 26.743 1.181 33.873-3.912l41.46-29.614z"/><path d="m290.548 180.535c-8.201 8.201-8.2 21.498.001 29.699 25.142 25.143 25.144 65.836 0 90.98-8.201 8.201-8.202 21.498-.001 29.699 8.201 8.2 21.496 8.202 29.699 0 41.555-41.554 41.561-108.818 0-150.378-8.201-8.201-21.498-8.201-29.699 0z"/></svg>