<svg id="Layer_1" enable-background="new 0 0 511.333 511.333" height="512" viewBox="0 0 511.333 511.333" width="512" xmlns="http://www.w3.org/2000/svg"><path d="m255.667 511.333c-141.301 0-255.667-114.347-255.667-255.666 0-141.3 114.348-255.667 255.667-255.667 141.299 0 255.667 114.348 255.667 255.667-.001 141.299-114.349 255.666-255.667 255.666zm0-469.333c-117.816 0-213.667 95.851-213.667 213.667s95.851 213.667 213.667 213.667 213.667-95.851 213.667-213.667-95.851-213.667-213.667-213.667z"/><path d="m301.659 373.137-109.992-183.32-45.993 76.655c-3.795 6.325-10.631 10.195-18.007 10.195h-32c-11.598 0-21-9.402-21-21s9.402-21 21-21h20.11l57.883-96.471c8.136-13.561 27.858-13.596 36.015 0l109.993 183.321 45.992-76.655c3.796-6.325 10.631-10.195 18.008-10.195h32c11.598 0 21 9.402 21 21s-9.402 21-21 21h-20.11l-57.882 96.471c-8.127 13.539-27.842 13.623-36.017-.001z"/></svg>