<svg id="Layer_1" enable-background="new 0 0 511.448 511.448" height="512" viewBox="0 0 511.448 511.448" width="512" xmlns="http://www.w3.org/2000/svg"><path d="m436.507 74.94c-99.913-99.913-261.64-99.927-361.567 0-99.913 99.913-99.928 261.64 0 361.567 99.913 99.913 261.639 99.928 361.567 0 99.914-99.911 99.93-261.639 0-361.567zm-180.783 394.451c-117.816 0-213.667-95.851-213.667-213.666s95.851-213.667 213.667-213.667 213.667 95.851 213.667 213.667-95.851 213.666-213.667 213.666z"/><path d="m397.022 239.471-117.333-96c-13.691-11.202-34.298-1.429-34.298 16.253v51.685l-83.036-67.938c-13.691-11.203-34.298-1.429-34.298 16.253v192c0 17.791 20.729 27.355 34.298 16.253l83.036-67.938v51.685c0 17.672 20.603 27.46 34.298 16.253l117.333-96c10.23-8.37 10.3-24.079 0-32.506zm-226.965 67.938v-103.37l63.17 51.685zm117.334 0v-103.37l63.17 51.685z"/></svg>