<svg id="Layer_1" enable-background="new 0 0 511.449 511.449" height="512" viewBox="0 0 511.449 511.449" width="512" xmlns="http://www.w3.org/2000/svg"><path d="m436.508 74.941c-99.912-99.914-261.64-99.93-361.567 0-99.913 99.913-99.928 261.639 0 361.566 99.912 99.914 261.64 99.93 361.567 0 99.913-99.912 99.928-261.638 0-361.566zm-180.784 394.45c-117.816 0-213.667-95.851-213.667-213.667s95.852-213.667 213.667-213.667 213.667 95.851 213.667 213.667-95.851 213.667-213.667 213.667z"/><path d="m181.058 298.724c-23.71 0-43-19.29-43-43s19.29-43 43-43c80.882 0 76.721.406 81.146-1.03 8.868-2.884 14.521-11.139 14.521-19.97 0-7.788.03-5.767-34.993-64.138-5.967-9.944-18.866-13.172-28.812-7.202-9.945 5.967-13.17 18.866-7.203 28.812l12.917 21.528h-37.576c-46.869 0-85 38.131-85 85s38.131 85 85 85c11.598 0 21-9.402 21-21s-9.402-21-21-21z"/><path d="m330.391 170.724c-11.598 0-21 9.402-21 21s9.402 21 21 21c23.71 0 43 19.29 43 43s-19.29 43-43 43c-77.706 0-78.703-1.059-85.471 2.992-6.026 3.622-10 10.146-10.172 17.541-.178 8.039-.437 5.595 34.969 64.605 5.969 9.948 18.873 13.168 28.812 7.202 9.945-5.967 13.17-18.866 7.203-28.812l-12.917-21.528h37.576c46.869 0 85-38.131 85-85s-38.131-85-85-85z"/></svg>