<svg id="Layer_1" enable-background="new 0 0 511.556 511.556" height="512" viewBox="0 0 511.556 511.556" width="512" xmlns="http://www.w3.org/2000/svg"><path d="m255.67.005c-141.298 0-255.67 114.355-255.67 255.67 0 191.358 201.794 313.116 370.308 228.58l19.449 20.53c8.395 8.86 22.302 8.626 30.476.016l70.254-74.007c25.335-23.032 27.995-62.034 5.704-88.272 59.841-165.372-62.397-342.517-240.521-342.517zm-213.67 255.67c0-117.818 95.852-213.67 213.67-213.67 144.367 0 247.817 141.253 203.479 279.06-19.768-3.616-39.583 2.223-54.146 15.395-40.617-36.741-106.333-8.002-106.333 47.216 0 18.428 7.912 35.819 21.756 47.927l19.425 20.504c-140.75 60.26-297.851-43.381-297.851-196.432zm419.971 144.277c-1.034.908 2.618-2.882-56.952 59.871-59.605-62.914-55.267-58.423-56.594-59.537-15.456-12.969-6.261-38.278 13.912-38.278 11.946 0 21.666 9.72 21.666 21.667 0 11.598 9.402 21 21 21s21-9.402 21-21c0-11.947 9.72-21.667 21.667-21.667 19.916 0 29.255 24.787 14.301 37.944z"/><path d="m319.337 255.675c0-35.106-28.561-63.667-63.667-63.667s-63.667 28.561-63.667 63.667 28.561 63.667 63.667 63.667 63.667-28.561 63.667-63.667zm-63.667 21.667c-11.947 0-21.667-9.72-21.667-21.667s9.72-21.667 21.667-21.667 21.667 9.72 21.667 21.667-9.72 21.667-21.667 21.667z"/></svg>