<svg id="Layer_1" enable-background="new 0 0 511.444 511.444" height="512" viewBox="0 0 511.444 511.444" width="512" xmlns="http://www.w3.org/2000/svg"><path d="m436.511 74.947c-99.915-99.917-261.638-99.932-361.568 0-99.917 99.917-99.931 261.637 0 361.568 70.894 70.895 172.63 91.293 261.183 61.982 11.011-3.646 16.982-15.525 13.337-26.536s-15.528-16.982-26.535-13.337c-138.207 45.75-280.871-57.724-280.871-202.893 0-117.818 95.852-213.67 213.67-213.67 145.026 0 248.699 142.505 202.894 280.87-3.645 11.011 2.326 22.891 13.336 26.535 11.011 3.646 22.891-2.326 26.536-13.336 29.247-88.347 9.112-190.09-61.982-261.183z"/><path d="m236.62 164.488c-13.772-10.714-33.893-.867-33.893 16.576v149.334c0 17.431 20.111 27.295 33.893 16.576l96-74.667c10.795-8.395 10.81-24.746 0-33.152zm8.107 122.973v-63.459l40.795 31.729z"/><path d="m460.746 370.712c-8.201-8.201-21.497-8.201-29.698 0l-15.321 15.321-15.321-15.321c-8.201-8.201-21.497-8.201-29.698 0s-8.201 21.498 0 29.699l15.32 15.32-15.32 15.32c-8.201 8.201-8.201 21.498 0 29.699 8.2 8.2 21.497 8.201 29.698 0l15.321-15.321 15.321 15.321c8.2 8.2 21.497 8.201 29.698 0s8.201-21.498 0-29.699l-15.32-15.32 15.32-15.32c8.201-8.201 8.201-21.498 0-29.699z"/></svg>