<svg id="Layer_1" enable-background="new 0 0 511.442 511.442" height="512" viewBox="0 0 511.442 511.442" width="512" xmlns="http://www.w3.org/2000/svg"><path d="m436.511 74.946c-99.919-99.919-261.64-99.93-361.568 0-99.917 99.917-99.931 261.637 0 361.568 70.894 70.895 172.63 91.292 261.184 61.982 11.01-3.646 16.981-15.525 13.337-26.536s-15.521-16.98-26.536-13.337c-138.206 45.75-280.87-57.725-280.87-202.894 0-117.818 95.852-213.67 213.67-213.67 145.027 0 248.696 142.504 202.894 280.87-3.645 11.011 2.327 22.892 13.337 26.536 11.016 3.642 22.891-2.328 26.536-13.337 29.24-88.347 9.11-190.088-61.984-261.182z"/><path d="m236.62 164.487c-13.772-10.714-33.893-.867-33.893 16.576v149.334c0 17.431 20.111 27.295 33.893 16.576l96-74.667c10.796-8.397 10.807-24.747 0-33.152zm8.107 122.973v-63.459l40.795 31.729z"/><path d="m400.878 358.214-32 32c-8.2 8.201-8.2 21.498 0 29.699 7.015 7.016 17.757 8.028 25.85 3.045v24.772c0 11.598 9.402 21 21 21s21-9.402 21-21v-74.667c-.001-18.656-22.639-28.058-35.85-14.849z"/></svg>