<svg id="Layer_1" enable-background="new 0 0 511.449 511.449" height="512" viewBox="0 0 511.449 511.449" width="512" xmlns="http://www.w3.org/2000/svg"><path d="m436.508 74.941c-99.912-99.914-261.639-99.93-361.566 0-99.914 99.912-99.93 261.639 0 361.566 99.912 99.914 261.639 99.93 361.566 0 99.913-99.911 99.929-261.638 0-361.566zm-180.784 394.45c-117.816 0-213.667-95.851-213.667-213.667s95.851-213.667 213.667-213.667 213.667 95.851 213.667 213.667-95.85 213.667-213.667 213.667z"/><path d="m170.391 191.391h170.666c11.598 0 21-9.402 21-21s-9.402-21-21-21h-170.666c-11.598 0-21 9.402-21 21s9.403 21 21 21z"/><path d="m298.057 255.724c0-11.598-9.402-21-21-21h-106.666c-11.598 0-21 9.402-21 21s9.402 21 21 21h106.666c11.598 0 21-9.402 21-21z"/><path d="m234.391 320.057h-64c-11.598 0-21 9.402-21 21s9.402 21 21 21h64c11.598 0 21-9.402 21-21s-9.402-21-21-21z"/><path d="m403.783 258.274-42.667-21.333c-13.938-6.967-30.392 3.18-30.392 18.783v43c-24.25 0-42.667 19.431-42.667 42.333 0 23.343 18.991 42.334 42.334 42.334s42.333-18.991 42.333-42.334c0-10.538 0-40.039 0-51.354l12.276 6.138c10.375 5.188 22.987.981 28.175-9.392 5.186-10.374.981-22.988-9.392-28.175zm-73.059 82.783c0 .442-.667.442-.667 0 0-.184.149-.333.334-.333.417 0 .333-.086.333.333z"/></svg>