<svg id="Layer_1" enable-background="new 0 0 511.333 511.333" height="512" viewBox="0 0 511.333 511.333" width="512" xmlns="http://www.w3.org/2000/svg"><path d="m438.333 32h-365.333c-40.252 0-73 32.748-73 73v301.334c0 40.252 32.748 73 73 73h365.333c40.252 0 73-32.748 73-73v-301.334c0-40.252-32.748-73-73-73zm31 374.333c0 17.094-13.907 31-31 31h-365.333c-17.093 0-31-13.906-31-31v-301.333c0-17.094 13.907-31 31-31h365.333c17.093 0 31 13.906 31 31z"/><path d="m181 266.667h-11v-139c0-11.598-9.402-21-21-21s-21 9.402-21 21v139h-11c-11.598 0-21 9.402-21 21s9.402 21 21 21h64c11.598 0 21-9.402 21-21s-9.402-21-21-21z"/><path d="m149 330.667c-11.598 0-21 9.402-21 21v10.667c0 11.598 9.402 21 21 21s21-9.402 21-21v-10.667c0-11.598-9.402-21-21-21z"/><path d="m394.333 266.667h-11v-139c0-11.598-9.402-21-21-21s-21 9.402-21 21v139h-11c-11.598 0-21 9.402-21 21s9.402 21 21 21h64c11.598 0 21-9.402 21-21s-9.402-21-21-21z"/><path d="m362.333 330.667c-11.598 0-21 9.402-21 21v10.667c0 11.598 9.402 21 21 21s21-9.402 21-21v-10.667c0-11.598-9.402-21-21-21z"/><path d="m287.667 170.667h-11v-43c0-11.598-9.402-21-21-21s-21 9.402-21 21v43h-11c-11.598 0-21 9.402-21 21s9.402 21 21 21h64c11.598 0 21-9.402 21-21s-9.402-21-21-21z"/><path d="m255.667 234.667c-11.598 0-21 9.402-21 21v106.667c0 11.598 9.402 21 21 21s21-9.402 21-21v-106.667c0-11.598-9.402-21-21-21z"/></svg>