<svg id="Layer_1" enable-background="new 0 0 511.333 511.333" height="512" viewBox="0 0 511.333 511.333" width="512" xmlns="http://www.w3.org/2000/svg"><path d="m415.667 74.667h-320c-11.598 0-21 9.402-21 21v320c0 11.598 9.402 21 21 21h320c11.598 0 21-9.402 21-21v-320c0-11.598-9.403-21-21-21zm-21 320h-278v-278h278z"/><path d="m223.667 362c35.106 0 63.667-28.561 63.667-63.666 0-10.436 0-84.546 0-94.021l33.608 16.805c10.376 5.185 22.988.982 28.175-9.392s.981-22.988-9.392-28.175l-64-32c-13.938-6.967-30.392 3.175-30.392 18.783v64.333h-21.667c-35.106 0-63.667 28.561-63.667 63.667.001 35.105 28.562 63.666 63.668 63.666zm0-85.333h21.667v21.667c0 11.946-9.72 21.666-21.667 21.666s-21.667-9.72-21.667-21.666c0-11.948 9.72-21.667 21.667-21.667z"/><path d="m490.333 106.667c-11.598 0-21 9.402-21 21v256c0 11.598 9.402 21 21 21s21-9.402 21-21v-256c0-11.598-9.402-21-21-21z"/><path d="m21 106.667c-11.598 0-21 9.402-21 21v256c0 11.598 9.402 21 21 21s21-9.402 21-21v-256c0-11.598-9.402-21-21-21z"/></svg>