<svg id="Layer_1" enable-background="new 0 0 511.34 511.34" height="512" viewBox="0 0 511.34 511.34" width="512" xmlns="http://www.w3.org/2000/svg"><path d="m470.088 116.391c-6.328-9.72-19.34-12.469-29.057-6.139-9.719 6.328-12.468 19.338-6.139 29.057 91.44 140.434-9.014 330.031-179.223 330.031-117.817 0-213.669-95.852-213.669-213.67s95.852-213.67 213.67-213.67c11.598 0 21-9.402 21-21s-9.402-21-21-21c-141.298 0-255.67 114.355-255.67 255.67 0 141.298 114.355 255.67 255.67 255.67 141.298 0 255.67-114.355 255.67-255.67 0-49.672-14.265-97.834-41.252-139.279z"/><path d="m314.592 50.22c29.69 8.498 57.784 23.776 81.246 44.185 3.978 3.46 8.886 5.155 13.773 5.155 19.263 0 28.498-24.052 13.791-36.845-28.066-24.413-61.696-42.696-97.254-52.874-11.149-3.188-22.776 3.261-25.968 14.411s3.261 22.776 14.412 25.968z"/><path d="m292.265 121.532c23.224 6.321 44.559 18.719 61.699 35.851 4.101 4.099 9.473 6.147 14.846 6.147 18.553 0 28.108-22.597 14.846-35.853-22.304-22.294-50.092-38.433-80.359-46.671-11.19-3.05-22.732 3.556-25.778 14.747s3.555 22.733 14.746 25.779z"/><path d="m170.67 255.67c0 46.869 38.131 85 85 85s85-38.131 85-85-38.131-85-85-85-85 38.131-85 85zm128 0c0 23.71-19.29 43-43 43s-43-19.29-43-43 19.29-43 43-43 43 19.29 43 43z"/></svg>