<svg id="Capa_1" enable-background="new 0 0 512 512" height="512" viewBox="0 0 512 512" width="512" xmlns="http://www.w3.org/2000/svg"><g id="XMLID_1079_"><g id="XMLID_1446_"><path id="XMLID_1619_" d="m138 66.037c36.141 42.272 56 96.06 56 151.676v110.211h216v-110.211c0-55.616 19.859-109.404 56-151.676z" fill="#fff"/></g><path id="XMLID_1445_" d="m130 66.037h344c15.464 0 28-12.536 28-28 0-15.464-12.536-28-28-28h-344c-15.464 0-28 12.536-28 28 0 15.464 12.536 28 28 28z" fill="#66e0f7"/><circle id="XMLID_1544_" cx="178.092" cy="333.87" fill="#ff7b79" r="168.092"/><g id="XMLID_355_"><path id="XMLID_386_" d="m474 .037h-127c-5.522 0-10 4.477-10 10s4.478 10 10 10h127c9.925 0 18 8.075 18 18s-8.075 18-18 18h-344c-9.925 0-18-8.075-18-18s8.075-18 18-18h127c5.522 0 10-4.477 10-10s-4.478-10-10-10h-127c-20.953 0-38 17.047-38 38s17.047 38 38 38h3.301c19.193 23.411 33.532 50.704 41.935 79.778-96.887 1.532-175.236 80.81-175.236 178.056 0 98.2 79.892 178.092 178.092 178.092s178.093-79.892 178.093-178.092c0-18.817-2.943-36.958-8.377-53.997l55.121 55.121c1.913 1.913 4.471 2.929 7.073 2.929 1.288 0 2.588-.249 3.825-.762 3.736-1.548 6.173-5.194 6.173-9.239v-110.21c0-51.667 17.965-101.793 50.674-141.676h3.326c20.953 0 38-17.047 38-38s-17.047-38-38-38zm-121.516 82.958 36.151 36.151-36.246 36.247-36.246-36.246 36.151-36.151c.034-.034.062-.071.095-.105.033.033.061.07.095.104zm-54.758 354.114c-15.22-28.741-23.883-60.573-25.354-93.238h63.488c-2.229 35.511-16.223 67.882-38.134 93.238zm-277.401-93.238h63.488c-1.471 32.665-10.134 64.497-25.354 93.238-21.911-25.356-35.906-57.727-38.134-93.238zm38.134-113.239c15.22 28.742 23.883 60.574 25.354 93.239h-63.488c2.228-35.512 16.223-67.883 38.134-93.239zm133.6-88.18 59.457-59.457c.034-.034.062-.071.095-.105.033.034.061.071.095.105l36.151 36.151-47.77 47.77c-13.892-5.175-28.595-8.671-43.865-10.222-1.243-4.789-2.63-9.54-4.163-14.242zm80.974-66.415h57.934l-28.967 28.967zm-84.941 247.834v-147.767c36.324 2.279 69.356 16.875 94.962 39.656-18.621 33.035-29.129 70.072-30.7 108.111zm77.662-154.336 36.246-36.246 36.246 36.246-36.246 36.246zm-97.662 154.336h-64.261c-1.571-38.038-12.079-75.076-30.7-108.111 25.606-22.781 58.638-37.377 94.961-39.656zm-64.261 20h64.261v147.767c-36.324-2.279-69.355-16.876-94.962-39.657 18.622-33.035 29.13-70.072 30.701-108.11zm84.261 0h64.262c1.571 38.038 12.079 75.075 30.701 108.11-25.606 22.781-58.638 37.378-94.962 39.657v-147.767zm84.279-20c1.471-32.665 10.134-64.497 25.354-93.239 21.912 25.356 35.906 57.727 38.134 93.239zm43.771-103.947 36.246-36.246 36.247 36.246-36.246 36.246zm84.292-16.486-33.903-33.903 36.247-36.247 9.171 9.171c-6.393 19.656-10.289 40.144-11.515 60.979zm-170.245-127.401-45.868 45.868c-6.928-16.158-15.603-31.56-25.83-45.868zm136.342 194.276 33.469-33.469v66.938zm53.146-148.411-45.865-45.865h71.68c-10.28 14.364-18.918 29.753-25.815 45.865z"/><path id="XMLID_868_" d="m302 20.037c2.63 0 5.21-1.07 7.069-2.93 1.86-1.86 2.931-4.44 2.931-7.07s-1.07-5.21-2.931-7.07c-1.859-1.86-4.439-2.93-7.069-2.93s-5.21 1.07-7.07 2.93-2.93 4.44-2.93 7.07 1.069 5.21 2.93 7.07c1.86 1.86 4.44 2.93 7.07 2.93z"/></g></g></svg>