<svg id="Capa_1" enable-background="new 0 0 512 512" height="512" viewBox="0 0 512 512" width="512" xmlns="http://www.w3.org/2000/svg"><g id="XMLID_2025_"><g id="XMLID_2014_"><path id="XMLID_2030_" d="m23 98h200v144h-200z" fill="#66e0f7"/><g fill="#c193dc"><path id="XMLID_2029_" d="m10 50h226v48h-226z"/><path id="XMLID_2027_" d="m10 242h226v48h-226z"/><path id="XMLID_2026_" d="m23 290h200v172h-200z"/></g><path id="XMLID_2020_" d="m95 338h56v48h-56z" fill="#fff"/><g id="XMLID_2015_" fill="#ff7b79"><circle id="XMLID_2017_" cx="163" cy="182.127" r="20"/><path id="XMLID_2016_" d="m163 202.127v40"/></g></g><g id="XMLID_2032_"><path id="XMLID_2051_" d="m289 98h200v144h-200z" fill="#66e0f7"/><g fill="#ff7b79"><path id="XMLID_2050_" d="m276 50h226v48h-226z"/><path id="XMLID_2049_" d="m276 242h226v48h-226z"/><path id="XMLID_2045_" d="m289 290h200v172h-200z"/></g><path id="XMLID_2040_" d="m361 338h56v48h-56z" fill="#fff"/><g id="XMLID_2036_" fill="#ff7b79"><circle id="XMLID_2038_" cx="429" cy="182.127" r="20"/><path id="XMLID_2037_" d="m429 202.127v40"/></g></g><g id="XMLID_476_"><path id="XMLID_1115_" d="m236 40h-68c-5.523 0-10 4.478-10 10s4.477 10 10 10h58v28h-206v-28h58c5.523 0 10-4.478 10-10s-4.477-10-10-10h-68c-5.523 0-10 4.478-10 10v48c0 5.522 4.477 10 10 10h3v124h-3c-5.523 0-10 4.477-10 10v48c0 5.522 4.477 10 10 10h3v162c0 5.522 4.477 10 10 10h200c5.523 0 10-4.478 10-10v-162h3c5.523 0 10-4.478 10-10v-48c0-5.523-4.477-10-10-10h-3v-124h3c5.523 0 10-4.478 10-10v-48c0-5.522-4.477-10-10-10zm-73 152.127c-5.514 0-10-4.486-10-10s4.486-10 10-10 10 4.486 10 10-4.486 10-10 10zm63 59.873v28h-206v-28zm-13 200h-180v-152h180zm0-220h-40v-21.593c11.639-4.128 20-15.244 20-28.28 0-16.542-13.458-30-30-30s-30 13.458-30 30c0 13.036 8.361 24.152 20 28.28v21.593h-120v-124h180z"/><path id="XMLID_1131_" d="m95 396h56c5.523 0 10-4.478 10-10v-48c0-5.522-4.477-10-10-10h-56c-5.523 0-10 4.478-10 10v48c0 5.522 4.477 10 10 10zm10-48h36v28h-36z"/><path id="XMLID_1138_" d="m502 108c5.523 0 10-4.478 10-10v-48c0-5.522-4.477-10-10-10h-226c-5.523 0-10 4.478-10 10v48c0 5.522 4.477 10 10 10h3v124h-3c-5.523 0-10 4.477-10 10v48c0 5.522 4.477 10 10 10h3v162c0 5.522 4.477 10 10 10h200c5.523 0 10-4.478 10-10v-162h3c5.523 0 10-4.478 10-10v-48c0-5.523-4.477-10-10-10h-3v-124zm-216-48h206v28h-206zm143 132.127c-5.514 0-10-4.486-10-10s4.486-10 10-10 10 4.486 10 10-4.486 10-10 10zm63 59.873v28h-206v-28zm-13 200h-180v-152h180zm0-220h-40v-21.593c11.639-4.128 20-15.244 20-28.28 0-16.542-13.458-30-30-30s-30 13.458-30 30c0 13.036 8.361 24.152 20 28.28v21.593h-120v-124h180z"/><path id="XMLID_1188_" d="m361 396h56c5.523 0 10-4.478 10-10v-48c0-5.522-4.477-10-10-10h-56c-5.523 0-10 4.478-10 10v48c0 5.522 4.477 10 10 10zm10-48h36v28h-36z"/><path id="XMLID_1189_" d="m123 60c2.63 0 5.21-1.07 7.07-2.931 1.86-1.859 2.93-4.439 2.93-7.069s-1.07-5.21-2.93-7.07-4.44-2.93-7.07-2.93-5.21 1.069-7.07 2.93c-1.86 1.86-2.93 4.44-2.93 7.07s1.07 5.21 2.93 7.069c1.86 1.861 4.44 2.931 7.07 2.931z"/></g></g></svg>