<svg id="Layer_1" enable-background="new 0 0 511.448 511.448" height="512" viewBox="0 0 511.448 511.448" width="512" xmlns="http://www.w3.org/2000/svg"><path d="m436.508 74.94c-99.913-99.913-261.64-99.928-361.567 0-99.913 99.913-99.928 261.64 0 361.567 99.913 99.913 261.64 99.928 361.567 0 99.912-99.912 99.927-261.639 0-361.567zm-180.784 394.45c-117.816 0-213.667-95.851-213.667-213.667s95.851-213.666 213.667-213.666 213.666 95.851 213.666 213.667-95.85 213.666-213.666 213.666z"/><path d="m339.782 162.274-64-32c-13.937-6.967-30.392 3.177-30.392 18.783v107h-21.667c-35.106 0-63.667 28.561-63.667 63.667s28.561 63.667 63.667 63.667 63.667-28.561 63.667-63.667c0-16.525 0-120.112 0-136.688l33.608 16.805c10.374 5.186 22.987.982 28.175-9.392 5.187-10.374.983-22.988-9.391-28.175zm-94.392 157.45c0 11.947-9.72 21.667-21.667 21.667s-21.667-9.72-21.667-21.667 9.72-21.667 21.667-21.667h21.667z"/><path d="m191.39 213.057v-11h11c11.598 0 21-9.402 21-21s-9.402-21-21-21h-11v-11c0-11.598-9.402-21-21-21s-21 9.402-21 21v11h-11c-11.598 0-21 9.402-21 21s9.402 21 21 21h11v11c0 11.598 9.402 21 21 21s21-9.401 21-21z"/></svg>