<svg id="Capa_1" enable-background="new 0 0 511.975 511.975" height="512" viewBox="0 0 511.975 511.975" width="512" xmlns="http://www.w3.org/2000/svg"><g id="XMLID_1305_"><g id="XMLID_1396_"><g id="XMLID_1128_"><path id="XMLID_61_" d="m134.653 300.249c-15.266-15.265-39.11-16.718-56.011-4.363-16.901-12.355-40.746-10.902-56.011 4.363-16.874 16.874-16.874 44.232 0 61.106l56.011 56.011 56.011-56.011c16.874-16.874 16.874-44.232 0-61.106z" fill="#ff7b79"/></g><g id="XMLID_1123_"><path id="XMLID_56_" d="m311.986 300.249c-15.266-15.265-39.11-16.718-56.011-4.363-16.901-12.355-40.746-10.902-56.011 4.363-16.874 16.874-16.874 44.232 0 61.106l56.011 56.011 56.011-56.011c16.874-16.874 16.874-44.232 0-61.106z" fill="#ff7b79"/></g><g id="XMLID_1394_"><path id="XMLID_51_" d="m489.319 300.249c-15.266-15.265-39.11-16.718-56.011-4.363-16.901-12.355-40.746-10.902-56.011 4.363-16.874 16.874-16.874 44.232 0 61.106l56.011 56.011 56.011-56.011c16.874-16.874 16.874-44.232 0-61.106z" fill="#ff7b79"/></g><g id="XMLID_1395_"><path id="XMLID_47_" d="m223.319 107.363c-15.266-15.265-39.11-16.718-56.011-4.363-16.901-12.355-40.746-10.902-56.011 4.363-16.874 16.874-16.874 44.232 0 61.106l56.011 56.011 56.011-56.011c16.874-16.874 16.874-44.232 0-61.106z" fill="#ff7b79"/></g><g id="XMLID_1345_"><path id="XMLID_46_" d="m400.653 107.363c-15.265-15.265-39.11-16.718-56.011-4.363-16.901-12.355-40.746-10.902-56.011 4.363-16.874 16.874-16.874 44.232 0 61.106l56.011 56.011 56.011-56.011c16.874-16.874 16.874-44.232 0-61.106z" fill="#ff7b79"/></g><g id="XMLID_1349_"><path id="XMLID_39_" d="m400.653 168.469c16.874-16.874 16.874-44.232 0-61.106-15.265-15.265-39.11-16.718-56.011-4.363v121.48z" fill="#66e0f7"/></g><g id="XMLID_62_"><path id="XMLID_65_" d="m78.641 284.054c-20.515-11.272-46.082-7.878-63.083 9.124-20.745 20.746-20.745 54.501 0 75.248l56.011 56.011c1.953 1.952 4.512 2.929 7.071 2.929s5.119-.977 7.071-2.929l56.011-56.011c10.05-10.05 15.585-23.411 15.585-37.624 0-14.212-5.535-27.574-15.584-37.624-17.002-17.003-42.569-20.397-63.082-9.124zm48.94 70.229-48.94 48.94-48.94-48.94c-12.948-12.948-12.948-34.016 0-46.964 6.389-6.389 14.957-9.667 23.556-9.667 6.837 0 13.694 2.074 19.482 6.306 3.514 2.568 8.288 2.569 11.803-.001 13.068-9.551 31.569-8.107 43.038 3.361v.001c6.273 6.272 9.727 14.611 9.727 23.481.001 8.872-3.453 17.211-9.726 23.483z"/><path id="XMLID_68_" d="m496.391 293.178h-.001c-17.001-17.002-42.568-20.398-63.082-9.124-20.516-11.273-46.082-7.877-63.082 9.124-20.746 20.746-20.746 54.502 0 75.248l56.011 56.011c1.876 1.876 4.419 2.929 7.071 2.929s5.195-1.054 7.071-2.929l56.012-56.011c10.05-10.05 15.584-23.411 15.584-37.624s-5.534-27.575-15.584-37.624zm-14.143 61.105-48.94 48.94-48.939-48.94c-12.948-12.948-12.948-34.015 0-46.963 6.389-6.389 14.957-9.667 23.556-9.667 6.837 0 13.694 2.074 19.482 6.306 3.516 2.568 8.287 2.568 11.803 0 13.067-9.553 31.571-8.107 43.039 3.361 6.272 6.272 9.727 14.611 9.727 23.481-.001 8.871-3.455 17.21-9.728 23.482z"/><path id="XMLID_71_" d="m230.391 100.292c-17.003-17.003-42.57-20.396-63.083-9.124-20.514-11.272-46.081-7.878-63.082 9.123-20.746 20.746-20.746 54.502 0 75.248l56.011 56.011c1.953 1.952 4.512 2.929 7.071 2.929s5.119-.977 7.071-2.929l56.011-56.012c20.746-20.744 20.746-54.5.001-75.246zm-14.143 61.106-48.94 48.94-48.94-48.94c-6.272-6.272-9.727-14.611-9.727-23.481 0-8.871 3.455-17.21 9.727-23.482 6.389-6.389 14.958-9.667 23.556-9.667 6.837 0 13.694 2.074 19.482 6.305 3.515 2.57 8.287 2.569 11.803 0 13.068-9.553 31.572-8.106 43.038 3.361 12.949 12.948 12.949 34.016.001 46.964z"/><path id="XMLID_74_" d="m407.724 100.292c-17.004-17.002-42.569-20.395-63.082-9.123-20.512-11.271-46.081-7.878-63.083 9.123-20.746 20.746-20.746 54.502 0 75.248l56.012 56.011c1.876 1.875 4.419 2.929 7.071 2.929s5.195-1.054 7.071-2.929l56.011-56.011c20.746-20.746 20.746-54.502 0-75.248zm-121.749 37.624c0-8.871 3.454-17.21 9.727-23.482 6.389-6.389 14.957-9.667 23.557-9.667 5.285 0 10.577 1.255 15.384 3.772v91.799l-38.94-38.94c-6.274-6.272-9.728-14.612-9.728-23.482zm107.606 23.482-38.939 38.94v-91.81c12.623-6.61 28.626-4.408 38.939 5.907 6.272 6.272 9.727 14.611 9.727 23.482 0 8.869-3.454 17.209-9.727 23.481z"/><path id="XMLID_76_" d="m319.057 293.178c-17.002-17.002-42.568-20.398-63.082-9.124-20.514-11.272-46.081-7.877-63.083 9.124-20.746 20.746-20.746 54.502 0 75.248l56.011 56.011c1.953 1.953 4.512 2.929 7.071 2.929 2.56 0 5.118-.976 7.071-2.929l24.191-24.191c3.905-3.905 3.905-10.237 0-14.143-3.906-3.905-10.236-3.905-14.143 0l-17.12 17.121-48.94-48.94c-12.948-12.948-12.948-34.015 0-46.963 11.468-11.469 29.971-12.914 43.038-3.361 3.516 2.57 8.288 2.569 11.803 0 13.068-9.553 31.57-8.108 43.039 3.361 3.79 3.79 6.531 8.277 8.147 13.336 1.68 5.26 7.306 8.162 12.569 6.481 5.261-1.681 8.163-7.309 6.482-12.569-2.558-8.013-7.073-15.41-13.054-21.391z"/><path id="XMLID_77_" d="m311.985 351.357c-2.63 0-5.21 1.07-7.07 2.93-1.859 1.86-2.93 4.44-2.93 7.07s1.07 5.21 2.93 7.07 4.44 2.93 7.07 2.93 5.21-1.07 7.07-2.93c1.859-1.86 2.93-4.44 2.93-7.07s-1.07-5.21-2.93-7.07-4.431-2.93-7.07-2.93z"/></g></g></g></svg>