<svg id="Capa_1" enable-background="new 0 0 512 512" height="512" viewBox="0 0 512 512" width="512" xmlns="http://www.w3.org/2000/svg"><g id="XMLID_86_"><path id="XMLID_1518_" d="m37 429.958h438v72.042h-438z" fill="#c193dc"/><path id="XMLID_1517_" d="m475 429.958h-438l37-80h364z" fill="#66e0f7"/><path id="XMLID_1425_" d="m37 10h438v64h-438z" fill="#ff7b79"/><path id="XMLID_1424_" d="m74 74h364v275.958h-364z" fill="#66e0f7"/><path id="XMLID_1423_" d="m122 122h268v179.958h-268z" fill="#ffee80"/><circle id="XMLID_1419_" cx="318" cy="277.958" fill="#ff7b79" r="32"/><g id="XMLID_2085_"><path id="XMLID_2088_" d="m475 84c5.522 0 10-4.477 10-10v-64c0-5.523-4.478-10-10-10h-438c-5.522 0-10 4.477-10 10v64c0 5.523 4.478 10 10 10h27v263.758l-36.076 78.003c-.608 1.316-.924 2.748-.924 4.198v72.041c0 5.523 4.478 10 10 10h438c5.522 0 10-4.477 10-10v-72.042c0-1.45-.315-2.882-.924-4.198l-36.076-78.002v-263.758zm-157 315.958c5.522 0 10-4.477 10-10v-30h103.607l27.75 60h-406.714l27.75-60h227.607v30c0 5.523 4.478 10 10 10zm-271 92.042v-52.042h418v52.042zm381-152.042h-100v-21.212c5.345-1.311 10.288-3.647 14.615-6.788h47.385c5.522 0 10-4.477 10-10v-179.958c0-5.523-4.478-10-10-10h-268c-5.522 0-10 4.477-10 10v179.958c0 5.523 4.478 10 10 10h171.385c4.326 3.141 9.27 5.477 14.615 6.788v21.212h-224v-255.958h127c5.523 0 10-4.477 10-10s-4.477-10-10-10h-164v-44h418v44h-164c-5.522 0-10 4.477-10 10s4.478 10 10 10h127zm-110-104c-23.159 0-42 18.841-42 42 0 4.908.854 9.618 2.408 14h-146.408v-159.958h248v159.958h-22.408c1.554-4.382 2.408-9.092 2.408-14 0-23.158-18.841-42-42-42zm-22 42c0-12.131 9.869-22 22-22s22 9.869 22 22-9.869 22-22 22-22-9.869-22-22z"/><path id="XMLID_2093_" d="m121.667 379.958h-18c-5.522 0-10 4.477-10 10s4.478 10 10 10h18c5.522 0 10-4.477 10-10s-4.478-10-10-10z"/><path id="XMLID_2094_" d="m187.667 379.958h-18c-5.523 0-10 4.477-10 10s4.477 10 10 10h18c5.522 0 10-4.477 10-10s-4.478-10-10-10z"/><path id="XMLID_2095_" d="m253.667 379.958h-18c-5.523 0-10 4.477-10 10s4.477 10 10 10h18c5.523 0 10-4.477 10-10s-4.477-10-10-10z"/><path id="XMLID_2096_" d="m256 64c-2.63 0-5.21 1.07-7.07 2.93s-2.93 4.44-2.93 7.07 1.069 5.21 2.93 7.07c1.86 1.86 4.44 2.93 7.07 2.93s5.21-1.07 7.069-2.93c1.861-1.86 2.931-4.44 2.931-7.07s-1.07-5.21-2.931-7.07c-1.859-1.86-4.439-2.93-7.069-2.93z"/></g></g></svg>