<svg id="Capa_1" enable-background="new 0 0 511.99 511.99" height="512" viewBox="0 0 511.99 511.99" width="512" xmlns="http://www.w3.org/2000/svg"><g id="XMLID_1700_"><g id="XMLID_978_"><path id="XMLID_964_" d="m463.99 173.229v306.75c-8.592 8.592-13.409 13.409-22 22-8.591-8.591-13.408-13.408-22-22v-306.75z" fill="#ffee80"/><path id="XMLID_994_" d="m419.99 426.979v53c8.591 8.592 13.408 13.408 22 22 8.591-8.592 13.408-13.408 22-22v-53z" fill="#c193dc"/><g id="XMLID_961_" fill="#66e0f7"><path id="XMLID_963_" d="m381.99 10.007.006.006v-.006z"/><path id="XMLID_962_" d="m381.996 10.013-.006 123.457 60 60.002v-123.462z"/></g><g id="XMLID_958_" fill="#66e0f7"><path id="XMLID_960_" d="m501.99 10.007-.005.006v-.006z"/><path id="XMLID_959_" d="m501.985 10.013.005 123.457-60 60.002v-123.462z"/></g><circle id="XMLID_775_" cx="190" cy="321.979" fill="#ff7b79" r="180"/><circle id="XMLID_774_" cx="190" cy="321.979" fill="#fff" r="112.5"/><circle id="XMLID_773_" cx="190" cy="321.979" fill="#ff7b79" r="45"/></g><g id="XMLID_107_"><path id="XMLID_108_" d="m339.79 221.63c-4.749 2.819-6.313 8.955-3.495 13.704 15.508 26.124 23.705 56.085 23.705 86.644 0 93.738-76.262 170-170 170s-170-76.262-170-170 76.262-170 170-170c30.557 0 60.516 8.196 86.639 23.702 4.749 2.818 10.884 1.254 13.704-3.495 2.819-4.749 1.254-10.885-3.495-13.704-29.211-17.339-62.701-26.504-96.848-26.504-104.766 0-190 85.234-190 190s85.234 190 190 190 190-85.234 190-190c0-34.15-9.166-67.642-26.507-96.854-2.82-4.748-8.955-6.311-13.703-3.493z"/><path id="XMLID_956_" d="m190 199.479c-67.547 0-122.5 54.953-122.5 122.5s54.953 122.5 122.5 122.5 122.5-54.953 122.5-122.5-54.953-122.5-122.5-122.5zm0 224.999c-56.519 0-102.5-45.982-102.5-102.5 0-56.519 45.981-102.5 102.5-102.5 56.518 0 102.5 45.981 102.5 102.5s-45.981 102.5-102.5 102.5z"/><path id="XMLID_3202_" d="m190 266.978c-30.327 0-55 24.673-55 55s24.673 55 55 55 55-24.673 55-55-24.673-55-55-55zm0 90c-19.299 0-35-15.701-35-35s15.701-35 35-35 35 15.701 35 35-15.701 35-35 35z"/><path id="XMLID_3203_" d="m317.245 204.733c2.63 0 5.21-1.07 7.07-2.93s2.93-4.43 2.93-7.07c0-2.63-1.07-5.21-2.93-7.07s-4.44-2.93-7.07-2.93-5.21 1.07-7.07 2.93-2.93 4.44-2.93 7.07c0 2.64 1.07 5.21 2.93 7.07s4.44 2.93 7.07 2.93z"/><path id="XMLID_3206_" d="m511.99 133.469-.005-123.457c0-4.044-2.436-7.691-6.173-9.238-3.737-1.549-8.039-.692-10.898 2.168l-52.924 52.925-52.923-52.925c-2.859-2.86-7.16-3.718-10.898-2.168-3.737 1.547-6.173 5.194-6.173 9.238l-.005 123.457c0 2.652 1.053 5.196 2.929 7.071l35.071 35.073v304.365c0 2.652 1.054 5.196 2.929 7.071l22 22c1.953 1.953 4.512 2.929 7.071 2.929s5.119-.977 7.071-2.929l22-22c1.875-1.875 2.929-4.419 2.929-7.071v-304.365l35.071-35.073c1.875-1.875 2.928-4.419 2.928-7.071zm-119.995-99.314 39.996 39.997v95.177l-40-40.001zm49.995 453.681-12-11.999v-38.858h24v38.858zm12-70.857h-24v-221.365l4.929 4.929c1.875 1.876 4.419 2.929 7.071 2.929s5.196-1.054 7.071-2.929l4.929-4.929zm-2-247.65v-95.177l39.996-39.997.004 95.173z"/></g></g></svg>