<svg id="Layer_1" enable-background="new 0 0 511.448 511.448" height="512" viewBox="0 0 511.448 511.448" width="512" xmlns="http://www.w3.org/2000/svg"><path d="m436.508 74.94c-99.913-99.913-261.64-99.928-361.567 0-99.913 99.913-99.928 261.64 0 361.567 99.913 99.913 261.64 99.928 361.567 0 99.912-99.912 99.927-261.639 0-361.567zm-180.784 394.45c-117.816 0-213.667-95.851-213.667-213.667s95.851-213.666 213.667-213.666 213.666 95.851 213.666 213.667-95.85 213.666-213.666 213.666z"/><path d="m255.724 106.724c-52.75 0-95.667 42.916-95.667 95.667v74.667c0 45.538 31.984 83.741 74.667 93.339v45.328c0 11.598 9.402 21 21 21s21-9.402 21-21v-45.328c42.682-9.597 74.667-47.801 74.667-93.339v-74.668c-.001-52.75-42.917-95.666-95.667-95.666zm53.666 170.333c0 29.592-24.075 53.667-53.667 53.667s-53.667-24.075-53.667-53.667v-74.667c0-29.592 24.075-53.667 53.667-53.667s53.667 24.075 53.667 53.667z"/></svg>