<svg id="Capa_1" enable-background="new 0 0 512 512" height="512" viewBox="0 0 512 512" width="512" xmlns="http://www.w3.org/2000/svg"><g id="XMLID_1127_"><g id="XMLID_1246_"><g id="XMLID_589_"><circle id="XMLID_1301_" cx="334" cy="334" fill="#ffee80" r="168"/></g><g id="XMLID_1035_"><circle id="XMLID_459_" cx="334" cy="334" fill="#fff2a0" r="116"/></g><g id="XMLID_1181_"><path id="XMLID_448_" d="m313.425 311.298 11.076-34.446c2.934-9.125 15.839-9.14 18.795-.023l11.175 34.469h36.42c9.571 0 13.545 12.251 5.797 17.87l-29.395 21.314 11.276 34.372c2.987 9.104-7.438 16.7-15.189 11.066l-29.262-21.268-29.385 21.409c-7.741 5.64-18.171-1.935-15.204-11.041l11.264-34.568-29.464-21.272c-7.768-5.608-3.801-17.882 5.781-17.882z" fill="#ffee80"/></g></g><g id="XMLID_1250_"><g id="XMLID_1263_"><circle id="XMLID_458_" cx="178" cy="178" fill="#ffee80" r="168"/></g><g id="XMLID_1262_"><circle id="XMLID_449_" cx="178" cy="178" fill="#fff2a0" r="116"/></g><g id="XMLID_1256_"><path id="XMLID_447_" d="m157.425 155.298 11.076-34.446c2.934-9.125 15.839-9.14 18.795-.023l11.175 34.468h36.421c9.571 0 13.545 12.252 5.797 17.87l-29.395 21.314 11.276 34.372c2.987 9.104-7.438 16.7-15.189 11.066l-29.262-21.268-29.385 21.409c-7.741 5.64-18.172-1.935-15.204-11.041l11.264-34.568-29.464-21.273c-7.768-5.608-3.801-17.882 5.781-17.882h36.314z" fill="#ffee80"/></g></g><g id="XMLID_1324_"><path id="XMLID_1353_" d="m463.995 212.405c-28.948-30.935-67.476-50.346-109.216-55.201-10.333-88.386-85.664-157.204-176.779-157.204-31.308 0-62.101 8.245-89.048 23.843-4.779 2.767-6.412 8.885-3.645 13.665 2.766 4.779 8.883 6.412 13.664 3.645 23.907-13.838 51.235-21.153 79.029-21.153 87.121 0 158 70.878 158 158s-70.879 158-158 158-158-70.878-158-158c0-27.022 6.935-53.684 20.058-77.105 2.699-4.818.982-10.913-3.837-13.612-4.814-2.698-10.911-.982-13.612 3.836-14.791 26.401-22.609 56.444-22.609 86.881 0 91.114 68.818 166.446 157.204 176.779 4.855 41.74 24.265 80.269 55.201 109.216 33.081 30.957 76.265 48.005 121.595 48.005 98.149 0 178-79.851 178-178 0-45.33-17.048-88.513-48.005-121.595zm-201.51 122.233c.898.967 1.894 1.858 2.99 2.65l23.549 17.002-9.004 27.632c-2.722 8.35.112 17.08 7.218 22.24 3.549 2.577 7.614 3.865 11.68 3.865 4.075 0 8.149-1.294 11.703-3.884l23.503-17.124 23.376 16.99c7.106 5.165 16.286 5.16 23.389-.014 7.101-5.173 9.92-13.911 7.182-22.259l-9.003-27.44 23.49-17.032c7.105-5.152 9.946-13.875 7.238-22.224-2.708-8.348-10.129-13.742-18.905-13.742h-29.15l-8.933-27.552c-2.5-7.712-9.018-12.89-16.912-13.641 5.152-9.867 9.402-20.274 12.649-31.111 51.843 7.128 91.455 51.897 91.455 105.006 0 58.449-47.552 106-106 106-53.224 0-97.89-39.567-105.008-91.455 11.712-3.508 22.925-8.184 33.493-13.907zm20.98-13.34h29.96c4.344 0 8.19-2.804 9.52-6.939l10.957-34.078 11.056 34.1c1.337 4.124 5.178 6.916 9.513 6.916h36.036l-29.084 21.088c-3.519 2.551-4.986 7.083-3.632 11.213l11.156 34.005-28.95-21.041c-3.508-2.551-8.26-2.548-11.768.007l-29.072 21.182 11.145-34.202c1.347-4.132-.13-8.662-3.654-11.206l-26.162-18.889c1-.706 1.992-1.428 2.979-2.156zm50.535 170.702c-78.955 0-145.702-58.922-156.472-136.006.158 0 .314.006.472.006 10.734 0 21.249-.955 31.465-2.785 9.301 60.729 61.936 106.785 124.535 106.785 69.477 0 126-56.523 126-126 0-62.463-46.106-115.217-106.785-124.531 1.83-10.218 2.785-20.734 2.785-31.469 0-.158-.006-.315-.006-.473 77.083 10.772 136.006 77.519 136.006 156.473 0 87.122-70.879 158-158 158z"/><path id="XMLID_1361_" d="m178 304c69.477 0 126-56.523 126-126s-56.523-126-126-126-126 56.523-126 126 56.523 126 126 126zm0-232c58.448 0 106 47.551 106 106s-47.552 106-106 106-106-47.551-106-106 47.552-106 106-106z"/><path id="XMLID_1387_" d="m109.476 181.288 23.549 17.002-9.004 27.632c-2.722 8.35.112 17.08 7.218 22.24 3.549 2.577 7.614 3.865 11.68 3.865 4.075 0 8.149-1.294 11.703-3.884l23.503-17.124 23.376 16.99c7.105 5.165 16.286 5.16 23.389-.014 7.101-5.173 9.92-13.911 7.182-22.259l-9.003-27.44 23.49-17.032c7.105-5.152 9.946-13.876 7.238-22.224s-10.129-13.742-18.905-13.742h-29.15l-8.933-27.552c-2.709-8.353-10.127-13.746-18.906-13.746-.008 0-.018 0-.025 0-8.789.01-16.207 5.423-18.898 13.791l-8.844 27.507h-29.026c-8.786 0-16.209 5.402-18.911 13.762-2.704 8.36.154 17.085 7.277 22.228zm47.949-15.99c4.344 0 8.19-2.804 9.52-6.939l10.956-34.078 11.056 34.101c1.337 4.124 5.178 6.916 9.513 6.916h36.036l-29.084 21.088c-3.519 2.551-4.986 7.083-3.632 11.213l11.156 34.005-28.95-21.041c-3.509-2.551-8.261-2.547-11.768.007l-29.072 21.182 11.145-34.202c1.347-4.132-.13-8.662-3.654-11.206l-29.151-21.046z"/><path id="XMLID_1390_" d="m58.38 70.04c2.63 0 5.21-1.07 7.07-2.93 1.859-1.86 2.93-4.44 2.93-7.07s-1.07-5.21-2.93-7.07-4.44-2.93-7.07-2.93-5.21 1.07-7.07 2.93c-1.859 1.86-2.93 4.44-2.93 7.07s1.07 5.21 2.93 7.07 4.44 2.93 7.07 2.93z"/></g></g></svg>