<svg id="Layer_1" enable-background="new 0 0 511.449 511.449" height="512" viewBox="0 0 511.449 511.449" width="512" xmlns="http://www.w3.org/2000/svg"><path d="m436.508 74.941c-99.913-99.913-261.639-99.928-361.566 0-99.914 99.912-99.93 261.64 0 361.567 99.913 99.913 261.639 99.928 361.566 0 99.913-99.912 99.929-261.64 0-361.567zm-180.784 394.45c-117.816 0-213.667-95.851-213.667-213.667s95.851-213.666 213.667-213.666 213.667 95.851 213.667 213.667-95.85 213.666-213.667 213.666z"/><path d="m272.301 232.165c-8.396-10.795-24.746-10.81-33.152 0l-74.667 96c-10.714 13.774-.864 33.893 16.576 33.893h149.334c17.451 0 27.284-20.127 16.576-33.893zm-48.306 87.893 31.729-40.795 31.729 40.795z"/><path d="m330.391 149.391h-149.334c-11.598 0-21 9.402-21 21s9.402 21 21 21h149.334c11.598 0 21-9.402 21-21s-9.402-21-21-21z"/></svg>