<svg id="Layer_1" enable-background="new 0 0 511.449 511.449" height="512" viewBox="0 0 511.449 511.449" width="512" xmlns="http://www.w3.org/2000/svg"><path d="m436.508 74.941c-99.913-99.913-261.639-99.928-361.566 0-99.914 99.912-99.93 261.64 0 361.567 99.913 99.913 261.639 99.928 361.566 0 99.913-99.912 99.929-261.64 0-361.567zm-180.784 394.45c-117.816 0-213.667-95.851-213.667-213.667s95.851-213.666 213.667-213.666 213.667 95.851 213.667 213.667-95.85 213.666-213.667 213.666z"/><path d="m349.094 143.472-83.036 67.938v-51.685c0-17.691-20.615-27.448-34.298-16.253l-117.333 96c-10.231 8.37-10.3 24.079 0 32.506l117.333 96c13.592 11.122 34.298 1.51 34.298-16.253v-51.685l83.036 67.938c13.678 11.192 34.298 1.442 34.298-16.253v-192c-.001-17.691-20.615-27.448-34.298-16.253zm-125.037 163.938-63.17-51.685 63.17-51.685zm117.334 0-63.171-51.685 63.171-51.685z"/></svg>