<svg id="Layer_1" enable-background="new 0 0 511.449 511.449" height="512" viewBox="0 0 511.449 511.449" width="512" xmlns="http://www.w3.org/2000/svg"><path d="m436.508 74.941c-99.913-99.913-261.639-99.928-361.566 0-99.914 99.912-99.93 261.64 0 361.567 99.913 99.913 261.639 99.928 361.566 0 99.913-99.912 99.929-261.64 0-361.567zm-180.784 394.45c-117.816 0-213.667-95.851-213.667-213.667s95.851-213.666 213.667-213.666 213.667 95.851 213.667 213.667-95.85 213.666-213.667 213.666z"/><path d="m340.724 213.057c0-46.869-38.131-85-85-85s-85 38.131-85 85c0 47.93-1.45 61.942-29.783 118.609-6.968 13.936 3.177 30.392 18.783 30.392h75v21.667c0 11.598 9.402 21 21 21s21-9.402 21-21v-21.667h75c15.581 0 25.762-16.434 18.783-30.392-28.546-57.093-29.783-71.286-29.783-118.609zm-147.671 107.001c18.353-41.566 19.672-66.473 19.672-107 0-23.71 19.29-43 43-43s43 19.29 43 43c0 41.003 1.436 65.7 19.672 107z"/></svg>