<svg id="Layer_1" enable-background="new 0 0 511.449 511.449" height="512" viewBox="0 0 511.449 511.449" width="512" xmlns="http://www.w3.org/2000/svg"><path d="m436.508 74.941c-99.912-99.914-261.64-99.93-361.567 0-99.913 99.913-99.928 261.639 0 361.566 99.912 99.914 261.64 99.93 361.567 0 99.913-99.912 99.928-261.638 0-361.566zm-180.784 394.45c-117.816 0-213.667-95.851-213.667-213.667s95.852-213.667 213.667-213.667 213.667 95.851 213.667 213.667-95.851 213.667-213.667 213.667z"/><path d="m379.204 332.269c3.862-5.175 5.271-12.059 3.281-18.641-2.032-6.705-2.551-6.06-37.245-40.753-8.201-8.201-21.497-8.201-29.698 0-6.402 6.402-7.782 15.901-4.189 23.666-11.663-2.674-22.764-7.75-32.366-14.951-9.278-6.96-22.44-5.078-29.4 4.2-6.958 9.278-5.078 22.441 4.201 29.399 17.381 13.036 38.055 21.412 59.529 24.347-5.868 8.203-5.142 19.671 2.225 27.038 8.2 8.2 21.497 8.201 29.698 0 35.645-35.645 32.55-32.415 33.964-34.305z"/><path d="m383.153 188.729c-1.324-9.225-4.068-10.01-37.913-43.854-8.201-8.201-21.497-8.201-29.698 0-7.364 7.364-8.093 18.824-2.234 27.027-33.566 4.589-64.514 22.509-85.05 49.889l-32 42.667c-16.093 21.456-41.713 34.267-68.534 34.267-11.598 0-21 9.402-21 21s9.402 21 21 21c39.97 0 78.151-19.091 102.133-51.066l32-42.667c12.221-16.293 29.937-27.594 49.499-32.092-6.455 13.929 3.716 29.826 19.034 29.826 5.375 0 10.749-2.05 14.849-6.15 34.684-34.684 32.988-32.76 34.613-35.188 2.798-4.185 4.07-9.296 3.301-14.659z"/><path d="m127.724 212.724c18.415 0 36.671 6.085 51.404 17.135 3.778 2.834 8.199 4.201 12.583 4.201 20.096 0 28.76-25.695 12.616-37.801-21.956-16.467-49.161-25.535-76.604-25.535-11.598 0-21 9.402-21 21s9.403 21 21.001 21z"/></svg>