<svg id="Capa_1" enable-background="new 0 0 512 512" height="512" viewBox="0 0 512 512" width="512" xmlns="http://www.w3.org/2000/svg"><g id="XMLID_321_"><path id="XMLID_1481_" d="m80 82h352v420h-352z" fill="#e7e9ef"/><g id="XMLID_320_"><path id="XMLID_992_" d="m128 278h256v56h-256z" fill="#ffee80" transform="matrix(-1 0 0 -1 512 612)"/><path id="XMLID_327_" d="m128 222h256v56h-256z" fill="#ffbdbc" transform="matrix(-1 0 0 -1 512 500)"/><path id="XMLID_977_" d="m128 166h256v56h-256z" fill="#ff9c9b" transform="matrix(-1 0 0 -1 512 388)"/><path id="XMLID_991_" d="m128 334h256v56h-256z" fill="#fff2a0" transform="matrix(-1 0 0 -1 512 724)"/><g fill="#66e0f7"><path id="XMLID_988_" d="m128 390h256v56h-256z" transform="matrix(-1 0 0 -1 512 836)"/><path id="XMLID_863_" d="m128 446h256v56h-256z" transform="matrix(-1 0 0 -1 512 948)"/></g></g><g id="XMLID_1601_"><path id="XMLID_1727_" d="m54 10h404v72h-404z" fill="#66e0f7"/><path id="XMLID_1726_" d="m256 122c-17.397 0-31.5-14.103-31.5-31.5v-8.5h63v8.5c0 17.397-14.103 31.5-31.5 31.5z" fill="#66e0f7"/><path id="XMLID_1724_" d="m211.201 315.444c-21.313-21.313-24.66-54.69-8.004-79.81l52.803-79.634 52.802 79.633c16.656 25.12 13.309 58.498-8.003 79.81-24.742 24.742-64.856 24.742-89.598.001z" fill="#ff7b79"/></g><g id="XMLID_1214_"><path id="XMLID_1369_" d="m458 0h-157c-5.522 0-10 4.477-10 10s4.478 10 10 10h147v52h-384v-52h147c5.523 0 10-4.477 10-10s-4.477-10-10-10h-157c-5.522 0-10 4.477-10 10v72c0 5.522 4.478 10 10 10h16v410c0 5.522 4.478 10 10 10h352c5.522 0 10-4.478 10-10v-410h16c5.522 0 10-4.478 10-10v-72c0-5.523-4.478-10-10-10zm-180.552 92c-.772 11.158-10.098 20-21.448 20-11.351 0-20.676-8.842-21.448-20zm-92.646 196c3.087 12.747 9.571 24.758 19.328 34.515.511.511 1.04.993 1.563 1.485h-67.693v-36zm142.396 0h46.802v36h-67.693c.522-.493 1.051-.974 1.563-1.485 9.757-9.757 16.241-21.768 19.328-34.515zm-189.198 56h236v36h-236zm236-76h-44.763c-.432-12.471-4.025-24.901-10.905-36h55.668zm-73.531-26.84c13.97 21.069 11.135 49.336-6.741 67.212-20.803 20.803-54.652 20.803-75.455 0-17.876-17.876-20.711-46.143-6.741-67.212l44.468-67.064zm-93.599-29.16h-68.87v-36h92.74zm-13.202 20c-6.879 11.099-10.473 23.529-10.905 36h-44.763v-36zm-55.668 168h236v36h-236zm236-188h-68.87l-23.871-36h92.741zm-284-120h124.538c.671 18.771 13.862 34.403 31.462 38.774v22.212l-1.998 3.014h-116.002c-5.522 0-10 4.477-10 10v326h-28zm48 400v-36h236v36zm284 0h-28v-326c0-5.523-4.478-10-10-10h-116-.001l-1.999-3.014v-22.212c17.6-4.372 30.79-20.003 31.462-38.774h124.538z"/><path id="XMLID_1515_" d="m256 20c2.63 0 5.21-1.07 7.069-2.931 1.861-1.859 2.931-4.439 2.931-7.069s-1.07-5.21-2.931-7.07c-1.859-1.861-4.439-2.93-7.069-2.93s-5.21 1.069-7.07 2.93c-1.861 1.86-2.93 4.44-2.93 7.07s1.069 5.21 2.93 7.069c1.86 1.861 4.44 2.931 7.07 2.931z"/></g></g></svg>