<svg id="svg" version="1.1" xmlns="http://www.w3.org/2000/svg" xmlns:xlink="http://www.w3.org/1999/xlink" width="400" height="400" viewBox="0, 0, 400,400"><g id="svgg"><path id="path0" d="M96.000 82.940 C 93.113 84.485,87.293 88.187,86.800 88.793 C 86.690 88.928,85.970 89.470,85.200 89.998 C 68.605 101.366,52.258 123.705,45.684 144.000 C 44.245 148.444,43.935 148.001,49.600 149.588 C 50.590 149.866,51.850 150.241,52.400 150.421 C 55.485 151.435,55.820 151.360,56.414 149.517 C 62.378 130.992,77.552 109.876,92.000 99.996 C 92.770 99.469,93.490 98.925,93.600 98.787 C 93.974 98.317,99.962 94.400,100.307 94.400 C 100.495 94.400,101.042 94.034,101.521 93.588 L 102.393 92.775 99.794 87.588 C 98.364 84.734,97.151 82.401,97.097 82.402 C 97.044 82.404,96.550 82.646,96.000 82.940 M56.400 250.000 L 56.400 256.000 62.400 256.000 L 68.400 256.000 68.400 250.000 L 68.400 244.000 62.400 244.000 L 56.400 244.000 56.400 250.000 " stroke="none" fill="#f8fbf8" fill-rule="evenodd"></path><path id="path1" d="M155.917 43.416 C 155.762 43.572,150.084 44.262,145.600 44.670 C 144.390 44.780,143.229 45.035,143.020 45.235 C 142.811 45.436,141.924 45.600,141.048 45.600 C 140.173 45.600,138.904 45.768,138.228 45.973 C 135.794 46.712,133.780 47.204,132.715 47.319 C 132.118 47.384,131.503 47.563,131.348 47.718 C 131.193 47.873,130.567 48.000,129.957 48.000 C 129.347 48.000,128.736 48.180,128.600 48.400 C 128.464 48.620,127.834 48.800,127.200 48.800 C 126.566 48.800,125.936 48.980,125.800 49.200 C 125.664 49.420,125.023 49.600,124.376 49.600 C 123.729 49.600,123.200 49.780,123.200 50.000 C 123.200 50.220,122.660 50.400,122.000 50.400 C 121.340 50.400,120.800 50.580,120.800 50.800 C 120.800 51.020,120.260 51.200,119.600 51.200 C 118.940 51.200,118.400 51.380,118.400 51.600 C 118.400 51.820,118.038 52.000,117.595 52.000 C 117.152 52.000,116.432 52.180,115.995 52.400 C 115.558 52.620,114.842 52.980,114.405 53.200 C 113.968 53.420,113.338 53.600,113.005 53.600 C 112.672 53.600,112.400 53.780,112.400 54.000 C 112.400 54.220,112.051 54.400,111.624 54.400 C 111.197 54.400,110.736 54.580,110.600 54.800 C 110.464 55.020,109.913 55.200,109.376 55.200 C 108.839 55.200,108.400 55.380,108.400 55.600 C 108.400 55.820,108.040 56.000,107.600 56.000 C 107.160 56.000,106.800 56.180,106.800 56.400 C 106.800 56.620,106.440 56.800,106.000 56.800 C 105.560 56.800,105.200 56.980,105.200 57.200 C 105.200 57.420,104.840 57.600,104.400 57.600 C 103.960 57.600,103.600 57.780,103.600 58.000 C 103.600 58.220,103.312 58.400,102.960 58.400 C 102.111 58.400,93.600 62.816,93.600 63.256 C 93.600 63.445,93.240 63.600,92.800 63.600 C 92.360 63.600,92.000 63.780,92.000 64.000 C 92.000 64.220,91.655 64.400,91.233 64.400 C 90.812 64.400,90.407 64.545,90.333 64.723 C 90.141 65.191,86.535 67.600,86.028 67.600 C 85.793 67.600,85.600 67.780,85.600 68.000 C 85.600 68.220,85.357 68.400,85.059 68.400 C 84.762 68.400,83.994 68.895,83.352 69.500 C 82.711 70.105,81.694 70.855,81.093 71.168 C 80.492 71.480,80.000 71.885,80.000 72.068 C 80.000 72.250,79.730 72.400,79.400 72.400 C 79.070 72.400,78.800 72.580,78.800 72.800 C 78.800 73.020,78.628 73.200,78.418 73.200 C 78.208 73.200,77.620 73.605,77.111 74.100 C 76.603 74.595,75.680 75.360,75.061 75.800 C 74.442 76.240,73.600 76.870,73.190 77.200 C 72.780 77.530,71.860 78.250,71.145 78.800 C 70.430 79.350,68.516 81.105,66.892 82.700 C 65.267 84.295,63.848 85.600,63.738 85.600 C 63.438 85.600,60.423 88.953,60.411 89.300 C 60.405 89.465,60.130 89.600,59.800 89.600 C 59.470 89.600,59.200 89.870,59.200 90.200 C 59.200 90.530,57.760 92.195,56.000 93.898 C 54.240 95.602,52.800 97.132,52.800 97.298 C 52.800 97.463,52.080 98.341,51.200 99.248 C 50.320 100.155,49.600 101.065,49.600 101.270 C 49.600 101.475,49.061 102.219,48.402 102.922 C 47.743 103.625,47.203 104.415,47.202 104.677 C 47.201 104.940,46.867 105.390,46.460 105.677 C 46.052 105.965,45.397 106.830,45.004 107.600 C 44.610 108.370,44.178 109.090,44.044 109.200 C 43.513 109.635,42.000 111.992,42.000 112.384 C 42.000 112.613,41.820 112.800,41.600 112.800 C 41.380 112.800,41.200 113.070,41.200 113.400 C 41.200 113.730,41.020 114.000,40.800 114.000 C 40.580 114.000,40.400 114.270,40.400 114.600 C 40.400 114.930,40.220 115.200,40.000 115.200 C 39.780 115.200,39.600 115.560,39.600 116.000 C 39.600 116.440,39.420 116.800,39.200 116.800 C 38.980 116.800,38.800 117.078,38.800 117.417 C 38.800 117.756,38.440 118.420,38.000 118.892 C 37.560 119.364,37.200 119.987,37.200 120.275 C 37.200 120.564,37.020 120.800,36.800 120.800 C 36.580 120.800,36.400 121.160,36.400 121.600 C 36.400 122.040,36.220 122.400,36.000 122.400 C 35.780 122.400,35.600 122.760,35.600 123.200 C 35.600 123.640,35.454 124.000,35.275 124.000 C 35.096 124.000,34.702 124.630,34.400 125.400 C 34.098 126.170,33.704 126.800,33.525 126.800 C 33.346 126.800,33.200 127.065,33.200 127.388 C 33.200 127.711,32.840 128.617,32.400 129.400 C 31.960 130.183,31.600 131.089,31.600 131.412 C 31.600 131.735,31.449 132.000,31.264 132.000 C 31.079 132.000,30.682 132.765,30.381 133.700 C 30.080 134.635,29.728 135.490,29.600 135.600 C 29.472 135.710,29.117 136.610,28.811 137.600 C 28.506 138.590,28.132 139.580,27.981 139.800 C 27.680 140.238,26.267 144.357,26.198 145.000 C 26.143 145.506,25.653 146.792,25.171 147.695 C 24.967 148.077,24.800 148.842,24.800 149.395 C 24.800 149.948,24.620 150.400,24.400 150.400 C 24.180 150.400,24.000 151.019,24.000 151.776 C 24.000 152.533,23.820 153.264,23.600 153.400 C 23.380 153.536,23.200 154.256,23.200 155.000 C 23.200 155.744,23.020 156.464,22.800 156.600 C 22.580 156.736,22.400 157.567,22.400 158.447 C 22.400 159.412,22.241 159.949,22.000 159.800 C 21.756 159.649,21.600 160.263,21.600 161.376 C 21.600 162.379,21.420 163.200,21.200 163.200 C 20.980 163.200,20.800 164.179,20.800 165.376 C 20.800 166.573,20.620 167.664,20.400 167.800 C 20.180 167.936,20.000 168.991,20.000 170.144 C 20.000 171.297,19.834 172.411,19.631 172.620 C 18.746 173.532,17.927 208.800,18.791 208.800 C 19.033 208.800,19.200 210.013,19.200 211.776 C 19.200 213.413,19.380 214.864,19.600 215.000 C 19.820 215.136,20.000 216.216,20.000 217.400 C 20.000 218.584,20.180 219.664,20.400 219.800 C 20.620 219.936,20.800 220.926,20.800 222.000 C 20.800 223.074,20.980 224.064,21.200 224.200 C 21.420 224.336,21.600 225.157,21.600 226.024 C 21.600 226.891,21.780 227.600,22.000 227.600 C 22.220 227.600,22.400 228.410,22.400 229.400 C 22.400 230.390,22.580 231.200,22.800 231.200 C 23.020 231.200,23.200 231.830,23.200 232.600 C 23.200 233.370,23.380 234.000,23.600 234.000 C 23.820 234.000,24.000 234.630,24.000 235.400 C 24.000 236.170,24.180 236.800,24.400 236.800 C 24.620 236.800,24.800 237.340,24.800 238.000 C 24.800 238.660,24.980 239.200,25.200 239.200 C 25.420 239.200,25.600 239.618,25.600 240.129 C 25.600 241.399,26.919 245.477,28.047 247.695 C 28.241 248.077,28.400 248.628,28.400 248.919 C 28.400 249.446,29.326 251.596,30.819 254.538 C 31.249 255.384,31.600 256.329,31.600 256.638 C 31.600 256.947,31.780 257.200,32.000 257.200 C 32.220 257.200,32.400 257.560,32.400 258.000 C 32.400 258.440,32.580 258.800,32.800 258.800 C 33.020 258.800,33.200 259.160,33.200 259.600 C 33.200 260.040,33.380 260.400,33.600 260.400 C 33.820 260.400,34.000 260.760,34.000 261.200 C 34.000 261.640,34.180 262.000,34.400 262.000 C 34.620 262.000,34.800 262.360,34.800 262.800 C 34.800 263.240,34.980 263.600,35.200 263.600 C 35.420 263.600,35.600 263.960,35.600 264.400 C 35.600 264.840,35.780 265.200,36.000 265.200 C 36.220 265.200,36.400 265.560,36.400 266.000 C 36.400 266.440,36.580 266.800,36.800 266.800 C 37.020 266.800,37.200 267.055,37.200 267.367 C 37.200 267.678,37.335 267.993,37.500 268.067 C 37.876 268.234,39.175 270.364,39.471 271.300 C 39.593 271.685,39.852 272.000,40.047 272.000 C 40.241 272.000,40.400 272.320,40.400 272.712 C 40.400 273.103,40.760 273.683,41.200 274.000 C 41.640 274.317,42.000 274.814,42.000 275.105 C 42.000 275.396,42.185 275.851,42.411 276.117 C 42.636 276.383,43.397 277.500,44.101 278.600 C 44.805 279.700,45.565 280.819,45.790 281.086 C 46.556 281.994,46.998 282.598,48.000 284.097 C 48.550 284.921,49.135 285.596,49.300 285.597 C 49.465 285.599,49.600 285.785,49.600 286.012 C 49.600 286.239,50.500 287.348,51.600 288.477 C 52.700 289.607,53.600 290.690,53.600 290.885 C 53.600 291.079,54.860 292.481,56.400 294.000 C 57.940 295.519,59.200 296.910,59.200 297.092 C 59.200 297.274,59.515 297.703,59.900 298.046 C 60.285 298.389,60.978 299.104,61.440 299.635 C 61.902 300.166,63.864 302.040,65.800 303.800 C 67.736 305.560,69.735 307.405,70.242 307.900 C 70.749 308.395,71.362 308.800,71.605 308.800 C 71.848 308.800,71.936 308.980,71.800 309.200 C 71.664 309.420,71.839 309.600,72.190 309.600 C 72.540 309.600,73.440 310.214,74.191 310.964 C 74.941 311.714,76.105 312.653,76.777 313.050 C 77.450 313.447,78.000 313.896,78.000 314.047 C 78.000 314.198,78.585 314.695,79.300 315.151 C 81.748 316.715,82.140 317.002,83.328 318.100 C 83.983 318.705,84.654 319.200,84.819 319.200 C 84.984 319.200,86.263 319.921,87.660 320.802 C 89.057 321.682,91.145 322.873,92.300 323.448 C 93.455 324.023,94.400 324.653,94.400 324.847 C 94.400 325.041,94.670 325.200,95.000 325.200 C 95.330 325.200,95.600 325.380,95.600 325.600 C 95.600 325.820,95.834 326.000,96.120 326.000 C 96.856 326.000,98.793 326.941,98.797 327.300 C 98.799 327.465,99.160 327.600,99.600 327.600 C 100.040 327.600,100.400 327.780,100.400 328.000 C 100.400 328.220,100.760 328.400,101.200 328.400 C 101.640 328.400,102.000 328.580,102.000 328.800 C 102.000 329.020,102.360 329.200,102.800 329.200 C 103.240 329.200,103.600 329.380,103.600 329.600 C 103.600 329.820,103.853 330.000,104.162 330.000 C 104.828 330.000,108.141 331.668,108.333 332.100 C 108.407 332.265,108.806 332.400,109.221 332.400 C 109.636 332.400,110.617 332.760,111.400 333.200 C 112.183 333.640,113.091 334.000,113.418 334.000 C 113.744 334.000,114.323 334.159,114.705 334.353 C 115.087 334.548,115.940 334.929,116.600 335.200 C 117.260 335.471,118.113 335.852,118.495 336.047 C 118.877 336.241,119.541 336.400,119.971 336.400 C 120.401 336.400,120.864 336.580,121.000 336.800 C 121.136 337.020,121.676 337.200,122.200 337.200 C 122.724 337.200,123.264 337.380,123.400 337.600 C 123.536 337.820,124.029 338.000,124.495 338.000 C 125.294 338.000,127.205 338.520,129.000 339.225 C 129.440 339.398,130.340 339.646,131.000 339.775 C 133.195 340.206,133.786 340.324,135.687 340.709 C 136.725 340.920,137.670 340.996,137.787 340.879 C 137.904 340.762,138.000 340.877,138.000 341.133 C 138.000 341.437,138.838 341.600,140.400 341.600 C 141.733 341.600,142.800 341.778,142.800 342.000 C 142.800 342.220,143.790 342.400,145.000 342.400 C 146.210 342.400,147.200 342.580,147.200 342.800 C 147.200 343.031,148.459 343.200,150.176 343.200 C 151.813 343.200,153.264 343.380,153.400 343.600 C 153.666 344.031,161.593 344.152,163.100 343.748 C 164.928 343.258,163.914 342.800,161.000 342.800 C 159.267 342.800,158.000 342.631,158.000 342.400 C 158.000 342.180,157.111 342.000,156.024 342.000 C 154.937 342.000,153.936 341.820,153.800 341.600 C 153.664 341.380,152.843 341.200,151.976 341.200 C 151.109 341.200,150.400 341.020,150.400 340.800 C 150.400 340.580,149.680 340.400,148.800 340.400 C 147.920 340.400,147.200 340.220,147.200 340.000 C 147.200 339.780,146.838 339.600,146.395 339.600 C 145.952 339.600,145.232 339.420,144.795 339.200 C 144.358 338.980,143.642 338.620,143.205 338.400 C 142.768 338.180,142.048 338.000,141.605 338.000 C 141.162 338.000,140.800 337.820,140.800 337.600 C 140.800 337.380,140.339 337.200,139.776 337.200 C 139.213 337.200,138.841 337.057,138.949 336.883 C 139.056 336.709,138.755 336.537,138.278 336.501 C 137.802 336.465,137.349 336.248,137.273 336.018 C 137.196 335.788,136.788 335.600,136.367 335.600 C 135.945 335.600,135.600 335.420,135.600 335.200 C 135.600 334.980,135.240 334.800,134.800 334.800 C 134.360 334.800,134.000 334.641,134.000 334.447 C 134.000 334.252,133.685 333.990,133.300 333.864 C 132.358 333.556,129.012 331.562,128.043 330.731 C 127.614 330.363,126.844 329.841,126.332 329.571 C 125.819 329.301,125.310 328.963,125.200 328.819 C 125.090 328.675,124.280 328.027,123.400 327.379 C 122.520 326.730,121.260 325.706,120.600 325.102 C 119.940 324.498,119.260 324.003,119.089 324.002 C 118.716 324.000,115.622 320.943,114.791 319.754 C 114.466 319.289,113.267 317.897,112.127 316.661 C 110.986 315.425,109.732 313.870,109.340 313.207 C 108.948 312.543,108.486 312.000,108.314 312.000 C 108.141 312.000,108.000 311.745,108.000 311.433 C 108.000 311.122,107.854 310.807,107.676 310.733 C 107.497 310.660,106.660 309.430,105.814 308.000 C 104.968 306.570,103.944 304.912,103.538 304.316 C 103.132 303.720,102.800 302.955,102.800 302.616 C 102.800 302.277,102.620 302.000,102.400 302.000 C 102.180 302.000,102.000 301.640,102.000 301.200 C 102.000 300.760,101.820 300.400,101.600 300.400 C 101.380 300.400,101.200 299.950,101.200 299.400 C 101.200 298.850,101.020 298.400,100.800 298.400 C 100.580 298.400,100.400 298.135,100.400 297.812 C 100.400 297.489,100.040 296.583,99.600 295.800 C 99.160 295.017,98.800 294.032,98.800 293.611 C 98.800 293.191,98.620 292.736,98.400 292.600 C 98.180 292.464,98.000 291.913,98.000 291.376 C 98.000 290.839,97.820 290.400,97.600 290.400 C 97.380 290.400,97.200 289.781,97.200 289.024 C 97.200 288.267,97.020 287.536,96.800 287.400 C 96.580 287.264,96.400 286.443,96.400 285.576 C 96.400 284.709,96.220 284.000,96.000 284.000 C 95.780 284.000,95.600 283.136,95.600 282.080 C 95.600 281.024,95.428 279.988,95.217 279.777 C 95.006 279.566,94.807 277.282,94.774 274.700 C 94.735 271.656,94.572 270.094,94.310 270.256 C 94.047 270.418,93.999 269.895,94.174 268.753 C 94.321 267.789,94.535 264.930,94.651 262.400 C 94.766 259.870,95.027 257.629,95.230 257.420 C 95.434 257.211,95.600 256.277,95.600 255.344 C 95.600 254.411,95.780 253.536,96.000 253.400 C 96.220 253.264,96.400 252.544,96.400 251.800 C 96.400 251.056,96.580 250.336,96.800 250.200 C 97.020 250.064,97.200 249.333,97.200 248.576 C 97.200 247.819,97.380 247.200,97.600 247.200 C 97.820 247.200,98.000 246.660,98.000 246.000 C 98.000 245.340,98.180 244.800,98.400 244.800 C 98.620 244.800,98.800 244.260,98.800 243.600 C 98.800 242.940,98.980 242.400,99.200 242.400 C 99.420 242.400,99.600 242.147,99.600 241.838 C 99.600 241.529,99.939 240.584,100.353 239.738 C 100.767 238.892,101.525 237.300,102.037 236.200 C 102.550 235.100,103.438 233.480,104.012 232.600 C 104.586 231.720,105.290 230.415,105.576 229.700 C 105.863 228.985,106.214 228.400,106.358 228.400 C 106.501 228.400,106.972 227.725,107.404 226.900 C 107.836 226.075,108.506 225.109,108.894 224.753 C 109.283 224.397,109.600 223.979,109.600 223.825 C 109.600 223.670,109.825 223.296,110.100 222.995 C 110.375 222.694,111.590 221.342,112.800 219.991 C 116.604 215.743,121.387 211.200,122.056 211.200 C 122.245 211.200,122.400 211.020,122.400 210.800 C 122.400 210.580,122.598 210.400,122.840 210.400 C 123.081 210.400,123.783 209.860,124.400 209.200 C 125.017 208.540,125.615 208.000,125.729 208.000 C 125.844 208.000,127.347 207.105,129.069 206.012 C 130.791 204.918,132.830 203.724,133.600 203.359 C 134.370 202.994,136.424 201.999,138.165 201.148 C 139.906 200.296,141.661 199.600,142.065 199.600 C 142.469 199.600,142.800 199.420,142.800 199.200 C 142.800 198.980,143.250 198.800,143.800 198.800 C 144.350 198.800,144.800 198.620,144.800 198.400 C 144.800 198.180,145.340 198.000,146.000 198.000 C 146.660 198.000,147.200 197.820,147.200 197.600 C 147.200 197.380,147.819 197.200,148.576 197.200 C 149.333 197.200,150.064 197.020,150.200 196.800 C 150.336 196.580,151.056 196.400,151.800 196.400 C 152.544 196.400,153.264 196.220,153.400 196.000 C 153.536 195.780,154.526 195.600,155.600 195.600 C 156.674 195.600,157.664 195.420,157.800 195.200 C 157.940 194.973,159.930 194.800,162.400 194.800 C 164.870 194.800,166.860 194.627,167.000 194.400 C 167.147 194.162,169.663 194.000,173.200 194.000 C 176.737 194.000,179.253 193.838,179.400 193.600 C 179.536 193.380,180.616 193.200,181.800 193.200 C 182.984 193.200,184.064 193.020,184.200 192.800 C 184.336 192.580,185.157 192.400,186.024 192.400 C 186.891 192.400,187.600 192.220,187.600 192.000 C 187.600 191.780,188.042 191.600,188.581 191.600 C 189.121 191.600,189.976 191.437,190.481 191.238 C 190.987 191.038,192.570 190.511,194.000 190.067 C 198.282 188.735,206.400 184.963,206.400 184.304 C 206.400 184.137,206.760 184.000,207.200 184.000 C 207.640 184.000,208.000 183.850,208.000 183.668 C 208.000 183.485,208.495 183.080,209.100 182.768 C 209.705 182.455,210.549 181.885,210.975 181.500 C 211.402 181.115,211.947 180.800,212.187 180.800 C 212.427 180.800,212.883 180.440,213.200 180.000 C 213.517 179.560,213.985 179.200,214.240 179.200 C 214.495 179.200,215.445 178.480,216.352 177.600 C 217.259 176.720,218.089 176.000,218.196 176.000 C 218.763 176.000,223.600 171.254,223.600 170.697 C 223.600 170.508,223.753 170.447,223.940 170.563 C 224.127 170.678,224.517 170.329,224.807 169.786 C 225.098 169.244,225.485 168.800,225.668 168.800 C 225.850 168.800,226.000 168.620,226.000 168.400 C 226.000 168.181,226.720 167.259,227.600 166.352 C 228.480 165.445,229.200 164.544,229.200 164.348 C 229.200 164.153,229.740 163.428,230.400 162.737 C 231.060 162.046,231.600 161.238,231.600 160.941 C 231.600 160.643,231.758 160.400,231.951 160.400 C 232.145 160.400,232.527 159.860,232.800 159.200 C 233.073 158.540,233.455 158.000,233.649 158.000 C 233.842 158.000,234.000 157.828,234.000 157.618 C 234.000 157.407,234.540 156.319,235.200 155.200 C 235.860 154.081,236.400 152.976,236.400 152.744 C 236.400 152.513,236.738 151.846,237.150 151.262 C 238.076 149.951,241.600 139.900,241.600 138.570 C 241.600 138.036,241.780 137.600,242.000 137.600 C 242.220 137.600,242.400 136.891,242.400 136.024 C 242.400 135.157,242.580 134.336,242.800 134.200 C 243.020 134.064,243.200 132.894,243.200 131.600 C 243.200 130.306,243.380 129.136,243.600 129.000 C 243.850 128.846,244.000 124.929,244.000 118.576 C 244.000 112.059,243.856 108.400,243.600 108.400 C 243.378 108.400,243.200 107.341,243.200 106.024 C 243.200 104.717,243.020 103.536,242.800 103.400 C 242.580 103.264,242.400 102.454,242.400 101.600 C 242.400 100.746,242.220 99.936,242.000 99.800 C 241.780 99.664,241.600 99.171,241.600 98.705 C 241.600 97.677,240.178 93.316,238.435 89.000 C 237.593 86.916,234.585 80.985,234.310 80.867 C 234.140 80.793,234.000 80.478,234.000 80.167 C 234.000 79.855,233.842 79.600,233.649 79.600 C 233.455 79.600,233.073 79.060,232.800 78.400 C 232.527 77.740,232.145 77.200,231.951 77.200 C 231.758 77.200,231.600 76.912,231.600 76.560 C 231.600 76.209,231.060 75.417,230.400 74.800 C 229.740 74.183,229.200 73.467,229.200 73.208 C 229.200 72.949,228.480 72.046,227.600 71.200 C 226.720 70.354,226.000 69.470,226.000 69.235 C 226.000 68.691,220.833 63.501,218.200 61.399 C 217.100 60.521,215.909 59.488,215.553 59.102 C 215.197 58.716,214.701 58.400,214.449 58.400 C 214.198 58.400,213.428 57.860,212.737 57.200 C 212.046 56.540,211.253 56.000,210.974 56.000 C 210.695 56.000,210.407 55.833,210.333 55.630 C 210.260 55.426,209.930 55.201,209.600 55.130 C 209.270 55.058,208.730 54.730,208.399 54.400 C 207.664 53.666,205.651 52.430,204.700 52.129 C 204.315 52.007,204.000 51.748,204.000 51.553 C 204.000 51.359,203.766 51.200,203.480 51.200 C 202.744 51.200,200.807 50.259,200.803 49.900 C 200.801 49.735,200.476 49.600,200.080 49.600 C 199.684 49.600,199.189 49.457,198.980 49.282 C 198.771 49.107,197.880 48.732,197.000 48.448 C 196.120 48.165,194.773 47.650,194.006 47.304 C 193.240 46.957,191.980 46.512,191.206 46.314 C 184.666 44.640,183.103 44.275,181.000 43.926 C 178.692 43.544,156.246 43.087,155.917 43.416 M176.400 68.999 C 178.270 69.320,180.430 69.755,181.200 69.965 C 181.970 70.174,183.050 70.463,183.600 70.606 C 184.150 70.750,185.005 71.032,185.500 71.233 C 185.995 71.435,186.805 71.758,187.300 71.951 C 188.661 72.482,193.772 74.955,194.000 75.193 C 194.110 75.307,194.657 75.636,195.216 75.923 C 211.027 84.047,221.925 108.289,218.345 127.376 C 216.058 139.574,207.076 154.175,198.884 159.014 C 198.178 159.431,197.600 159.914,197.600 160.086 C 197.600 160.259,197.407 160.400,197.172 160.400 C 196.937 160.400,195.933 160.958,194.941 161.640 C 186.717 167.299,169.746 170.574,160.106 168.363 C 141.475 164.091,128.372 153.421,121.958 137.300 C 121.761 136.805,121.435 135.995,121.233 135.500 C 121.032 135.005,120.750 134.150,120.606 133.600 C 120.463 133.050,120.174 131.970,119.965 131.200 C 115.447 114.612,120.637 95.828,133.211 83.253 C 136.412 80.053,142.184 75.600,143.132 75.600 C 143.353 75.600,143.593 75.456,143.667 75.281 C 143.847 74.849,150.134 71.837,152.526 71.036 C 159.865 68.581,169.292 67.776,176.400 68.999 M100.197 87.194 C 103.364 93.515,103.360 93.166,100.300 94.962 C 82.924 105.159,66.448 124.674,59.234 143.600 C 58.521 145.470,57.772 147.313,57.569 147.695 C 57.366 148.077,57.200 148.626,57.200 148.915 C 57.200 151.433,55.772 151.971,52.000 150.875 C 51.230 150.651,49.254 150.080,47.609 149.607 C 44.121 148.604,43.496 148.201,43.981 147.266 C 44.171 146.900,44.594 145.700,44.921 144.600 C 47.473 136.021,56.022 119.528,61.326 112.951 C 67.593 105.180,72.830 99.528,77.414 95.588 C 83.748 90.143,86.158 88.384,94.194 83.341 C 97.311 81.384,97.273 81.359,100.197 87.194 M318.800 149.200 L 318.800 155.200 325.000 155.200 L 331.200 155.200 331.200 149.200 L 331.200 143.200 325.000 143.200 L 318.800 143.200 318.800 149.200 M334.800 149.200 L 334.800 155.200 340.800 155.200 L 346.800 155.200 346.800 149.200 L 346.800 143.200 340.800 143.200 L 334.800 143.200 334.800 149.200 M318.800 164.000 L 318.800 170.000 325.000 170.000 L 331.200 170.000 331.200 164.000 L 331.200 158.000 325.000 158.000 L 318.800 158.000 318.800 164.000 M334.800 164.000 L 334.800 170.000 340.800 170.000 L 346.800 170.000 346.800 164.000 L 346.800 158.000 340.800 158.000 L 334.800 158.000 334.800 164.000 M223.800 232.172 C 212.631 234.032,204.036 238.412,196.224 246.224 C 182.728 259.720,178.211 278.958,184.255 297.200 C 185.325 300.430,188.772 307.628,189.619 308.400 C 189.740 308.510,190.277 309.230,190.812 310.000 C 193.032 313.192,196.220 316.603,199.389 319.177 C 206.314 324.800,211.976 327.647,220.200 329.641 C 227.570 331.428,236.847 331.143,245.200 328.873 C 248.773 327.902,255.781 324.673,258.583 322.707 C 263.446 319.296,268.731 314.207,271.239 310.522 C 271.959 309.465,272.649 308.510,272.774 308.400 C 273.160 308.059,274.438 305.837,274.671 305.100 C 274.793 304.715,275.052 304.400,275.247 304.400 C 275.441 304.400,275.600 304.147,275.600 303.838 C 275.600 303.529,275.986 302.494,276.457 301.538 C 281.217 291.883,282.114 279.128,278.873 267.200 C 276.389 258.062,268.079 246.237,260.600 241.200 C 259.500 240.459,258.510 239.751,258.400 239.626 C 257.593 238.713,250.768 235.450,247.119 234.234 C 240.177 231.920,230.469 231.061,223.800 232.172 M343.225 245.502 C 342.690 247.206,342.126 248.870,341.972 249.200 C 341.819 249.530,341.513 250.250,341.293 250.800 C 338.643 257.428,330.890 270.725,328.001 273.600 C 327.890 273.710,327.172 274.610,326.406 275.600 C 324.067 278.619,323.917 278.795,320.140 282.962 C 312.499 291.394,294.517 306.400,292.055 306.400 C 290.920 306.400,291.232 307.354,293.887 312.000 C 294.327 312.770,295.141 314.203,295.695 315.184 C 296.250 316.165,296.877 317.026,297.089 317.096 C 297.715 317.305,309.965 308.939,311.600 307.186 C 311.710 307.068,313.240 305.814,315.000 304.399 C 321.741 298.981,332.069 288.094,337.916 280.242 C 339.080 278.679,340.250 277.127,340.516 276.794 C 340.782 276.461,341.255 275.696,341.568 275.094 C 341.880 274.492,342.285 274.000,342.468 274.000 C 342.650 274.000,342.800 273.803,342.800 273.562 C 342.800 273.321,343.139 272.646,343.553 272.062 C 347.423 266.606,355.200 249.396,355.200 246.287 C 355.200 245.660,350.875 244.000,349.240 244.000 C 348.804 244.000,348.336 243.820,348.200 243.600 C 348.064 243.380,347.434 243.200,346.800 243.200 C 346.166 243.200,345.536 243.020,345.400 242.800 C 344.789 241.811,344.128 242.631,343.225 245.502 M68.800 250.000 L 68.800 256.400 62.400 256.400 L 56.000 256.400 56.000 250.000 L 56.000 243.600 62.400 243.600 L 68.800 243.600 68.800 250.000 " stroke="none" fill="#04e304" fill-rule="evenodd"></path><path id="path2" d="M234.617 56.372 C 234.210 57.031,235.174 57.279,239.531 57.635 C 241.879 57.828,244.429 58.168,245.197 58.392 C 245.966 58.617,247.271 58.800,248.097 58.800 C 248.924 58.800,249.600 58.980,249.600 59.200 C 249.600 59.420,250.140 59.600,250.800 59.600 C 251.460 59.600,252.000 59.780,252.000 60.000 C 252.000 60.220,252.540 60.400,253.200 60.400 C 253.860 60.400,254.400 60.580,254.400 60.800 C 254.400 61.020,254.940 61.200,255.600 61.200 C 256.260 61.200,256.800 61.380,256.800 61.600 C 256.800 61.820,257.115 61.999,257.500 61.997 C 258.276 61.994,266.522 66.011,266.733 66.495 C 266.807 66.663,267.212 66.800,267.633 66.800 C 268.055 66.800,268.400 66.980,268.400 67.200 C 268.400 67.420,268.720 67.600,269.112 67.600 C 269.503 67.600,270.083 67.960,270.400 68.400 C 270.717 68.840,271.257 69.200,271.600 69.200 C 271.943 69.200,272.483 69.560,272.800 70.000 C 273.117 70.440,273.631 70.800,273.941 70.800 C 274.252 70.800,274.797 71.117,275.153 71.504 C 275.509 71.892,276.493 72.725,277.340 73.355 C 279.342 74.846,289.600 85.103,289.600 85.615 C 289.600 85.831,290.140 86.572,290.800 87.263 C 291.460 87.954,292.000 88.684,292.000 88.886 C 292.000 89.308,294.049 92.133,294.500 92.333 C 294.665 92.407,294.800 92.812,294.800 93.233 C 294.800 93.655,294.980 94.000,295.200 94.000 C 295.420 94.000,295.600 94.345,295.600 94.767 C 295.600 95.188,295.735 95.593,295.900 95.667 C 296.324 95.855,298.800 100.799,298.800 101.456 C 298.800 101.755,298.980 102.000,299.200 102.000 C 299.420 102.000,299.600 102.360,299.600 102.800 C 299.600 103.240,299.780 103.600,300.000 103.600 C 300.220 103.600,300.400 104.039,300.400 104.576 C 300.400 105.113,300.580 105.664,300.800 105.800 C 301.020 105.936,301.200 106.487,301.200 107.024 C 301.200 107.561,301.380 108.000,301.600 108.000 C 301.820 108.000,302.000 108.540,302.000 109.200 C 302.000 109.860,302.180 110.400,302.400 110.400 C 302.620 110.400,302.800 110.940,302.800 111.600 C 302.800 112.260,302.980 112.800,303.200 112.800 C 303.420 112.800,303.600 113.700,303.600 114.800 C 303.600 115.900,303.780 116.800,304.000 116.800 C 304.220 116.800,304.400 117.689,304.400 118.776 C 304.400 119.863,304.580 120.864,304.800 121.000 C 305.050 121.154,305.200 125.063,305.200 131.400 C 305.200 137.737,305.050 141.646,304.800 141.800 C 304.580 141.936,304.400 142.836,304.400 143.800 C 304.400 144.764,304.220 145.664,304.000 145.800 C 303.780 145.936,303.600 146.746,303.600 147.600 C 303.600 148.454,303.420 149.264,303.200 149.400 C 302.980 149.536,302.800 150.177,302.800 150.824 C 302.800 151.471,302.620 152.000,302.400 152.000 C 302.180 152.000,302.000 152.540,302.000 153.200 C 302.000 153.860,301.820 154.400,301.600 154.400 C 301.380 154.400,301.200 154.940,301.200 155.600 C 301.200 156.260,301.020 156.800,300.800 156.800 C 300.580 156.800,300.401 157.115,300.403 157.500 C 300.406 158.276,296.389 166.522,295.905 166.733 C 295.737 166.807,295.600 167.212,295.600 167.633 C 295.600 168.055,295.420 168.400,295.200 168.400 C 294.980 168.400,294.800 168.678,294.800 169.017 C 294.800 169.356,294.440 170.020,294.000 170.492 C 293.560 170.964,293.200 171.587,293.200 171.875 C 293.200 172.164,293.053 172.400,292.874 172.400 C 292.695 172.400,292.229 173.069,291.839 173.887 C 291.449 174.705,290.786 175.615,290.365 175.909 C 289.944 176.204,289.600 176.619,289.600 176.832 C 289.600 177.226,277.395 189.600,277.006 189.600 C 276.889 189.600,276.228 190.140,275.537 190.800 C 274.846 191.460,274.051 192.000,273.769 192.000 C 273.488 192.000,273.019 192.225,272.729 192.500 C 272.438 192.775,271.705 193.255,271.100 193.568 C 270.495 193.880,270.000 194.285,270.000 194.468 C 270.000 194.650,269.640 194.800,269.200 194.800 C 268.760 194.800,268.400 194.980,268.400 195.200 C 268.400 195.420,268.055 195.600,267.633 195.600 C 267.212 195.600,266.807 195.737,266.733 195.905 C 266.522 196.389,258.276 200.406,257.500 200.403 C 257.115 200.401,256.800 200.580,256.800 200.800 C 256.800 201.020,256.260 201.200,255.600 201.200 C 254.940 201.200,254.400 201.380,254.400 201.600 C 254.400 201.820,253.860 202.000,253.200 202.000 C 252.540 202.000,252.000 202.180,252.000 202.400 C 252.000 202.620,251.460 202.800,250.800 202.800 C 250.140 202.800,249.600 202.980,249.600 203.200 C 249.600 203.420,248.790 203.600,247.800 203.600 C 246.810 203.600,246.000 203.780,246.000 204.000 C 246.000 204.220,245.100 204.400,244.000 204.400 C 242.900 204.400,242.000 204.580,242.000 204.800 C 242.000 205.046,240.000 205.200,236.800 205.200 C 233.600 205.200,231.600 205.354,231.600 205.600 C 231.600 205.848,229.400 206.000,225.800 206.000 C 222.200 206.000,220.000 206.152,220.000 206.400 C 220.000 206.622,218.933 206.800,217.600 206.800 C 216.267 206.800,215.200 206.978,215.200 207.200 C 215.200 207.420,214.480 207.600,213.600 207.600 C 212.720 207.600,212.000 207.780,212.000 208.000 C 212.000 208.220,211.472 208.400,210.828 208.400 C 209.499 208.400,203.070 210.408,202.867 210.887 C 202.793 211.059,202.309 211.200,201.790 211.200 C 201.272 211.200,200.736 211.380,200.600 211.600 C 200.464 211.820,200.003 212.000,199.576 212.000 C 199.149 212.000,198.800 212.180,198.800 212.400 C 198.800 212.620,198.455 212.800,198.033 212.800 C 197.612 212.800,197.207 212.935,197.133 213.100 C 197.060 213.265,196.153 213.829,195.118 214.354 C 194.082 214.878,192.875 215.643,192.434 216.054 C 191.994 216.464,191.396 216.800,191.105 216.800 C 190.814 216.800,190.317 217.160,190.000 217.600 C 189.683 218.040,189.143 218.400,188.800 218.400 C 188.457 218.400,187.917 218.760,187.600 219.200 C 187.283 219.640,186.775 220.000,186.472 220.000 C 186.169 220.000,185.417 220.540,184.800 221.200 C 184.183 221.860,183.471 222.400,183.217 222.400 C 182.613 222.400,172.400 232.613,172.400 233.217 C 172.400 233.471,171.860 234.183,171.200 234.800 C 170.540 235.417,170.000 236.169,170.000 236.472 C 170.000 236.775,169.640 237.283,169.200 237.600 C 168.760 237.917,168.400 238.457,168.400 238.800 C 168.400 239.143,168.040 239.683,167.600 240.000 C 167.160 240.317,166.800 240.814,166.800 241.105 C 166.800 241.396,166.464 241.994,166.054 242.434 C 165.643 242.875,164.878 244.082,164.354 245.118 C 163.829 246.153,163.265 247.060,163.100 247.133 C 162.935 247.207,162.800 247.612,162.800 248.033 C 162.800 248.455,162.620 248.800,162.400 248.800 C 162.180 248.800,162.000 249.149,162.000 249.576 C 162.000 250.003,161.820 250.464,161.600 250.600 C 161.380 250.736,161.200 251.272,161.200 251.790 C 161.200 252.309,161.059 252.793,160.887 252.867 C 160.408 253.070,158.400 259.499,158.400 260.828 C 158.400 261.472,158.220 262.000,158.000 262.000 C 157.780 262.000,157.600 262.720,157.600 263.600 C 157.600 264.480,157.420 265.200,157.200 265.200 C 156.978 265.200,156.800 266.267,156.800 267.600 C 156.800 268.933,156.622 270.000,156.400 270.000 C 156.143 270.000,156.000 274.000,156.000 281.200 C 156.000 288.400,156.143 292.400,156.400 292.400 C 156.622 292.400,156.800 293.467,156.800 294.800 C 156.800 296.133,156.978 297.200,157.200 297.200 C 157.420 297.200,157.600 297.920,157.600 298.800 C 157.600 299.680,157.757 300.400,157.948 300.400 C 158.140 300.400,158.418 301.475,158.567 302.788 C 158.715 304.101,158.973 305.260,159.139 305.362 C 159.306 305.465,159.690 306.461,159.993 307.575 C 160.296 308.689,160.692 309.600,160.872 309.600 C 161.053 309.600,161.200 310.039,161.200 310.576 C 161.200 311.113,161.380 311.664,161.600 311.800 C 161.820 311.936,162.000 312.397,162.000 312.824 C 162.000 313.251,162.180 313.600,162.400 313.600 C 162.620 313.600,162.800 313.960,162.800 314.400 C 162.800 314.840,162.980 315.200,163.200 315.200 C 163.420 315.200,163.600 315.560,163.600 316.000 C 163.600 316.440,163.780 316.800,164.000 316.800 C 164.220 316.800,164.400 317.078,164.400 317.417 C 164.400 317.756,164.760 318.420,165.200 318.892 C 165.640 319.364,166.000 319.987,166.000 320.275 C 166.000 320.564,166.180 320.800,166.400 320.800 C 166.620 320.800,166.800 321.036,166.800 321.325 C 166.800 321.613,167.160 322.236,167.600 322.708 C 168.040 323.180,168.400 323.714,168.400 323.895 C 168.400 324.076,168.760 324.483,169.200 324.800 C 169.640 325.117,170.000 325.625,170.000 325.928 C 170.000 326.231,170.540 326.983,171.200 327.600 C 171.860 328.217,172.400 328.882,172.400 329.079 C 172.400 329.437,175.018 332.435,178.400 335.950 C 179.390 336.979,181.370 338.710,182.800 339.797 C 184.230 340.884,185.460 341.914,185.533 342.087 C 185.607 342.259,185.972 342.400,186.345 342.400 C 186.718 342.400,187.283 342.760,187.600 343.200 C 187.917 343.640,188.457 344.000,188.800 344.000 C 189.143 344.000,189.683 344.360,190.000 344.800 C 190.317 345.240,190.814 345.600,191.105 345.600 C 191.396 345.600,192.020 345.960,192.492 346.400 C 192.964 346.840,193.856 347.424,194.475 347.697 C 195.094 347.971,195.600 348.331,195.600 348.498 C 195.600 348.664,195.960 348.800,196.400 348.800 C 196.840 348.800,197.200 348.980,197.200 349.200 C 197.200 349.420,197.560 349.600,198.000 349.600 C 198.440 349.600,198.800 349.780,198.800 350.000 C 198.800 350.220,199.149 350.400,199.576 350.400 C 200.003 350.400,200.464 350.580,200.600 350.800 C 200.736 351.020,201.287 351.200,201.824 351.200 C 202.361 351.200,202.800 351.380,202.800 351.600 C 202.800 351.820,203.160 352.000,203.600 352.000 C 204.040 352.000,204.400 352.180,204.400 352.400 C 204.400 352.620,204.940 352.800,205.600 352.800 C 206.260 352.800,206.800 352.980,206.800 353.200 C 206.800 353.420,207.329 353.600,207.976 353.600 C 208.623 353.600,209.264 353.780,209.400 354.000 C 209.536 354.220,210.166 354.400,210.800 354.400 C 211.434 354.400,212.052 354.561,212.174 354.758 C 212.295 354.955,213.071 355.219,213.897 355.346 C 214.724 355.473,216.570 355.788,218.000 356.045 C 222.966 356.940,251.974 356.545,252.980 355.569 C 253.189 355.366,254.303 355.200,255.456 355.200 C 256.609 355.200,257.664 355.020,257.800 354.800 C 257.936 354.580,258.937 354.400,260.024 354.400 C 261.111 354.400,262.000 354.220,262.000 354.000 C 262.000 353.780,262.799 353.600,263.776 353.600 C 264.753 353.600,265.664 353.420,265.800 353.200 C 265.936 352.980,266.656 352.800,267.400 352.800 C 268.144 352.800,268.864 352.620,269.000 352.400 C 269.136 352.180,269.766 352.000,270.400 352.000 C 271.034 352.000,271.664 351.820,271.800 351.600 C 271.936 351.380,272.577 351.200,273.224 351.200 C 273.871 351.200,274.400 351.020,274.400 350.800 C 274.400 350.580,274.929 350.400,275.576 350.400 C 276.223 350.400,276.864 350.220,277.000 350.000 C 277.136 349.780,277.687 349.600,278.224 349.600 C 278.761 349.600,279.200 349.420,279.200 349.200 C 279.200 348.980,279.740 348.800,280.400 348.800 C 281.060 348.800,281.600 348.620,281.600 348.400 C 281.600 348.180,282.140 348.000,282.800 348.000 C 283.460 348.000,284.000 347.820,284.000 347.600 C 284.000 347.380,284.439 347.200,284.976 347.200 C 285.513 347.200,286.064 347.020,286.200 346.800 C 286.336 346.580,286.797 346.400,287.224 346.400 C 287.651 346.400,288.000 346.220,288.000 346.000 C 288.000 345.780,288.450 345.600,289.000 345.600 C 289.550 345.600,290.000 345.420,290.000 345.200 C 290.000 344.980,290.360 344.800,290.800 344.800 C 291.240 344.800,291.600 344.620,291.600 344.400 C 291.600 344.180,291.960 344.000,292.400 344.000 C 292.840 344.000,293.200 343.820,293.200 343.600 C 293.200 343.380,293.549 343.200,293.976 343.200 C 294.403 343.200,294.864 343.020,295.000 342.800 C 295.136 342.580,295.687 342.400,296.224 342.400 C 296.761 342.400,297.200 342.220,297.200 342.000 C 297.200 341.780,297.420 341.600,297.689 341.600 C 298.207 341.600,304.060 338.790,304.400 338.378 C 304.510 338.245,305.185 337.881,305.900 337.570 C 306.615 337.259,307.200 336.890,307.200 336.751 C 307.200 336.611,307.740 336.273,308.400 336.000 C 309.060 335.727,309.600 335.345,309.600 335.151 C 309.600 334.958,309.920 334.800,310.312 334.800 C 310.703 334.800,311.283 334.440,311.600 334.000 C 311.917 333.560,312.497 333.200,312.888 333.200 C 313.280 333.200,313.600 333.050,313.600 332.868 C 313.600 332.685,314.095 332.281,314.700 331.970 C 315.305 331.660,316.091 331.089,316.447 330.703 C 316.803 330.316,317.348 330.000,317.659 330.000 C 317.969 330.000,318.483 329.640,318.800 329.200 C 319.117 328.760,319.580 328.400,319.829 328.400 C 320.078 328.400,320.846 327.860,321.537 327.200 C 322.228 326.540,322.883 326.000,322.993 326.000 C 323.104 326.000,323.600 325.651,324.097 325.224 C 324.594 324.798,325.433 324.078,325.961 323.624 C 326.490 323.171,327.071 322.800,327.253 322.800 C 327.434 322.800,328.573 321.810,329.783 320.600 C 330.993 319.390,332.140 318.400,332.333 318.400 C 332.890 318.400,343.200 307.952,343.200 307.387 C 343.200 307.287,344.280 306.108,345.600 304.768 C 346.920 303.427,348.000 302.166,348.000 301.966 C 348.000 301.765,348.720 300.859,349.600 299.952 C 350.480 299.045,351.200 298.144,351.200 297.948 C 351.200 297.753,351.740 297.028,352.400 296.337 C 353.060 295.646,353.600 294.878,353.600 294.629 C 353.600 294.380,353.960 293.917,354.400 293.600 C 354.840 293.283,355.200 292.769,355.200 292.459 C 355.200 292.148,355.515 291.600,355.900 291.241 C 356.676 290.518,357.254 289.641,358.235 287.700 C 358.596 286.985,359.051 286.400,359.246 286.400 C 359.441 286.400,359.600 286.040,359.600 285.600 C 359.600 285.160,359.780 284.800,360.000 284.800 C 360.220 284.800,360.400 284.530,360.400 284.200 C 360.400 283.870,360.580 283.600,360.800 283.600 C 361.020 283.600,361.200 283.330,361.200 283.000 C 361.200 282.670,361.380 282.400,361.600 282.400 C 361.820 282.400,362.000 282.040,362.000 281.600 C 362.000 281.160,362.180 280.800,362.400 280.800 C 362.620 280.800,362.800 280.440,362.800 280.000 C 362.800 279.560,362.952 279.200,363.137 279.200 C 363.323 279.200,363.908 278.345,364.437 277.300 C 364.967 276.255,365.535 275.340,365.700 275.267 C 365.865 275.193,366.000 274.788,366.000 274.367 C 366.000 273.945,366.180 273.600,366.400 273.600 C 366.620 273.600,366.800 273.240,366.800 272.800 C 366.800 272.360,366.980 272.000,367.200 272.000 C 367.420 272.000,367.600 271.550,367.600 271.000 C 367.600 270.450,367.780 270.000,368.000 270.000 C 368.220 270.000,368.400 269.640,368.400 269.200 C 368.400 268.760,368.580 268.400,368.800 268.400 C 369.020 268.400,369.200 268.040,369.200 267.600 C 369.200 267.160,369.380 266.800,369.600 266.800 C 369.820 266.800,370.000 266.451,370.000 266.024 C 370.000 265.597,370.180 265.136,370.400 265.000 C 370.620 264.864,370.800 264.313,370.800 263.776 C 370.800 263.239,370.980 262.800,371.200 262.800 C 371.420 262.800,371.600 262.451,371.600 262.024 C 371.600 261.597,371.780 261.136,372.000 261.000 C 372.220 260.864,372.400 260.313,372.400 259.776 C 372.400 259.239,372.580 258.800,372.800 258.800 C 373.020 258.800,373.200 258.438,373.200 257.995 C 373.200 257.552,373.363 256.877,373.563 256.495 C 374.160 255.353,375.200 251.578,375.200 250.554 C 375.200 250.029,375.380 249.600,375.600 249.600 C 375.820 249.600,376.000 249.060,376.000 248.400 C 376.000 247.740,376.180 247.200,376.400 247.200 C 376.620 247.200,376.800 246.480,376.800 245.600 C 376.800 244.720,376.980 244.000,377.200 244.000 C 377.420 244.000,377.600 243.280,377.600 242.400 C 377.600 241.520,377.780 240.800,378.000 240.800 C 378.220 240.800,378.400 239.990,378.400 239.000 C 378.400 238.010,378.580 237.200,378.800 237.200 C 379.020 237.200,379.200 236.300,379.200 235.200 C 379.200 234.100,379.380 233.200,379.600 233.200 C 379.822 233.200,380.000 232.141,380.000 230.824 C 380.000 229.517,380.180 228.336,380.400 228.200 C 380.620 228.064,380.800 226.613,380.800 224.976 C 380.800 223.259,380.969 222.000,381.200 222.000 C 381.460 222.000,381.600 216.467,381.600 206.200 C 381.600 195.933,381.460 190.400,381.200 190.400 C 380.969 190.400,380.800 189.141,380.800 187.424 C 380.800 185.787,380.620 184.336,380.400 184.200 C 380.180 184.064,380.000 182.984,380.000 181.800 C 380.000 180.616,379.820 179.536,379.600 179.400 C 379.380 179.264,379.200 178.353,379.200 177.376 C 379.200 176.399,379.020 175.600,378.800 175.600 C 378.580 175.600,378.400 174.700,378.400 173.600 C 378.400 172.500,378.220 171.600,378.000 171.600 C 377.780 171.600,377.600 170.880,377.600 170.000 C 377.600 169.120,377.420 168.400,377.200 168.400 C 376.980 168.400,376.800 167.781,376.800 167.024 C 376.800 166.267,376.620 165.536,376.400 165.400 C 376.180 165.264,376.000 164.623,376.000 163.976 C 376.000 163.329,375.843 162.800,375.652 162.800 C 375.460 162.800,375.185 161.907,375.040 160.816 C 374.895 159.725,374.602 158.725,374.388 158.593 C 374.175 158.461,374.000 157.823,374.000 157.176 C 374.000 156.529,373.820 156.000,373.600 156.000 C 373.380 156.000,373.200 155.460,373.200 154.800 C 373.200 154.140,373.020 153.600,372.800 153.600 C 372.580 153.600,372.400 153.161,372.400 152.624 C 372.400 152.087,372.220 151.536,372.000 151.400 C 371.780 151.264,371.600 150.803,371.600 150.376 C 371.600 149.949,371.420 149.600,371.200 149.600 C 370.980 149.600,370.800 149.161,370.800 148.624 C 370.800 148.087,370.620 147.536,370.400 147.400 C 370.180 147.264,370.000 146.803,370.000 146.376 C 370.000 145.949,369.820 145.600,369.600 145.600 C 369.380 145.600,369.200 145.240,369.200 144.800 C 369.200 144.360,369.065 143.999,368.900 143.997 C 368.494 143.993,367.600 142.014,367.600 141.120 C 367.600 140.724,367.420 140.400,367.200 140.400 C 366.980 140.400,366.800 140.055,366.800 139.633 C 366.800 139.212,366.665 138.807,366.500 138.733 C 366.230 138.613,365.022 136.511,363.840 134.103 C 363.598 133.610,363.265 133.205,363.100 133.203 C 362.935 133.201,362.800 132.840,362.800 132.400 C 362.800 131.960,362.620 131.600,362.400 131.600 C 362.180 131.600,362.000 131.322,362.000 130.983 C 362.000 130.644,361.640 129.980,361.200 129.508 C 360.760 129.036,360.400 128.413,360.400 128.125 C 360.400 127.836,360.220 127.600,360.000 127.600 C 359.780 127.600,359.600 127.358,359.600 127.062 C 359.600 126.766,359.256 126.213,358.836 125.833 C 358.416 125.452,357.962 124.704,357.828 124.171 C 357.694 123.637,357.408 123.200,357.192 123.200 C 356.977 123.200,356.800 122.880,356.800 122.488 C 356.800 122.097,356.440 121.517,356.000 121.200 C 355.560 120.883,355.200 120.343,355.200 120.000 C 355.200 119.657,354.840 119.117,354.400 118.800 C 353.960 118.483,353.600 118.020,353.600 117.771 C 353.600 117.522,353.060 116.754,352.400 116.063 C 351.740 115.372,351.200 114.647,351.200 114.452 C 351.200 114.256,350.480 113.355,349.600 112.448 C 348.720 111.541,348.000 110.710,348.000 110.602 C 348.000 110.494,346.920 109.308,345.600 107.968 C 344.280 106.627,343.200 105.374,343.200 105.184 C 343.200 104.864,341.054 102.443,337.593 98.858 C 336.136 97.349,333.418 94.939,331.213 93.200 C 330.515 92.650,329.333 91.615,328.586 90.900 C 327.838 90.185,327.027 89.600,326.782 89.600 C 326.537 89.600,325.646 88.880,324.800 88.000 C 323.954 87.120,323.157 86.400,323.028 86.400 C 322.898 86.400,322.228 85.860,321.537 85.200 C 320.846 84.540,320.078 84.000,319.829 84.000 C 319.580 84.000,319.117 83.640,318.800 83.200 C 318.483 82.760,317.943 82.400,317.600 82.400 C 317.257 82.400,316.717 82.040,316.400 81.600 C 316.083 81.160,315.543 80.800,315.200 80.800 C 314.857 80.800,314.317 80.440,314.000 80.000 C 313.683 79.560,313.143 79.200,312.800 79.200 C 312.457 79.200,311.917 78.840,311.600 78.400 C 311.283 77.960,310.718 77.600,310.345 77.600 C 309.972 77.600,309.607 77.456,309.533 77.280 C 309.343 76.822,305.606 74.800,304.950 74.800 C 304.647 74.800,304.400 74.620,304.400 74.400 C 304.400 74.180,304.130 74.000,303.800 74.000 C 303.470 74.000,303.200 73.854,303.200 73.675 C 303.200 73.496,302.570 73.102,301.800 72.800 C 301.030 72.498,300.400 72.104,300.400 71.925 C 300.400 71.746,300.040 71.600,299.600 71.600 C 299.160 71.600,298.800 71.420,298.800 71.200 C 298.800 70.980,298.440 70.800,298.000 70.800 C 297.560 70.800,297.200 70.620,297.200 70.400 C 297.200 70.180,296.851 70.000,296.424 70.000 C 295.997 70.000,295.536 69.820,295.400 69.600 C 295.264 69.380,294.713 69.200,294.176 69.200 C 293.639 69.200,293.200 69.020,293.200 68.800 C 293.200 68.580,292.840 68.400,292.400 68.400 C 291.960 68.400,291.599 68.265,291.597 68.100 C 291.593 67.694,289.614 66.800,288.720 66.800 C 288.324 66.800,288.000 66.620,288.000 66.400 C 288.000 66.180,287.651 66.000,287.224 66.000 C 286.797 66.000,286.336 65.820,286.200 65.600 C 286.064 65.380,285.513 65.200,284.976 65.200 C 284.439 65.200,284.000 65.020,284.000 64.800 C 284.000 64.580,283.460 64.400,282.800 64.400 C 282.140 64.400,281.600 64.220,281.600 64.000 C 281.600 63.780,281.161 63.600,280.624 63.600 C 280.087 63.600,279.536 63.420,279.400 63.200 C 279.264 62.980,278.724 62.800,278.200 62.800 C 277.676 62.800,277.136 62.620,277.000 62.400 C 276.864 62.180,276.223 62.000,275.576 62.000 C 274.929 62.000,274.400 61.820,274.400 61.600 C 274.400 61.380,273.871 61.200,273.224 61.200 C 272.577 61.200,271.936 61.020,271.800 60.800 C 271.664 60.580,271.034 60.400,270.400 60.400 C 269.766 60.400,269.136 60.220,269.000 60.000 C 268.864 59.780,268.235 59.600,267.602 59.600 C 266.970 59.600,265.990 59.424,265.424 59.209 C 264.859 58.994,262.957 58.698,261.198 58.552 C 259.439 58.405,258.000 58.131,258.000 57.942 C 258.000 57.754,257.021 57.600,255.824 57.600 C 254.627 57.600,253.536 57.420,253.400 57.200 C 253.264 56.980,251.813 56.800,250.176 56.800 C 248.459 56.800,247.200 56.631,247.200 56.400 C 247.200 55.885,234.935 55.858,234.617 56.372 M163.000 69.262 C 131.141 74.037,111.470 104.721,121.369 134.200 C 125.051 145.165,133.046 155.353,142.335 160.917 C 144.944 162.479,151.452 165.600,152.101 165.600 C 152.397 165.600,152.811 165.752,153.020 165.937 C 153.229 166.123,155.110 166.666,157.200 167.145 C 184.708 173.452,210.754 157.023,217.486 129.118 C 219.037 122.689,218.245 108.487,216.030 103.000 C 213.593 96.964,210.023 90.097,208.856 89.200 C 208.713 89.090,208.124 88.370,207.549 87.600 C 203.143 81.707,194.482 75.297,187.000 72.391 C 179.460 69.463,169.940 68.222,163.000 69.262 M331.200 149.200 L 331.200 155.600 325.000 155.600 L 318.800 155.600 318.800 149.200 L 318.800 142.800 325.000 142.800 L 331.200 142.800 331.200 149.200 M347.000 149.200 L 347.000 155.400 340.700 155.510 L 334.400 155.620 334.400 149.200 L 334.400 142.780 340.700 142.890 L 347.000 143.000 347.000 149.200 M331.200 164.000 L 331.200 170.400 325.000 170.400 L 318.800 170.400 318.800 164.000 L 318.800 157.600 325.000 157.600 L 331.200 157.600 331.200 164.000 M347.000 164.000 L 347.000 170.200 340.700 170.310 L 334.400 170.420 334.400 164.000 L 334.400 157.580 340.700 157.690 L 347.000 157.800 347.000 164.000 M239.600 231.786 C 280.155 239.494,295.473 288.017,266.442 316.811 C 238.973 344.055,192.537 331.198,182.611 293.600 C 181.242 288.416,180.709 277.793,181.611 273.677 C 181.838 272.645,182.214 270.900,182.448 269.800 C 186.240 251.975,201.928 236.286,219.800 232.444 C 220.900 232.207,222.520 231.849,223.400 231.648 C 225.969 231.061,236.247 231.149,239.600 231.786 M346.081 242.358 C 346.587 242.555,347.810 242.936,348.800 243.205 C 349.790 243.473,351.050 243.831,351.600 244.000 C 352.150 244.169,353.372 244.539,354.317 244.823 C 356.318 245.425,356.329 246.196,354.398 251.000 C 354.221 251.440,353.489 253.330,352.772 255.200 C 344.686 276.287,324.402 300.083,301.784 315.019 C 296.650 318.410,296.848 318.395,295.235 315.500 C 294.015 313.309,293.067 311.661,291.686 309.334 C 290.249 306.911,289.869 307.459,295.800 303.392 C 298.000 301.884,300.790 299.862,302.000 298.900 C 303.210 297.938,304.560 296.867,305.000 296.521 C 310.015 292.573,316.993 285.856,321.539 280.600 C 323.441 278.400,325.095 276.510,325.213 276.400 C 326.314 275.373,332.251 266.859,334.414 263.203 C 337.878 257.351,342.800 246.656,342.800 244.984 C 342.800 244.087,344.066 242.000,344.610 242.000 C 344.914 242.000,345.576 242.161,346.081 242.358 " stroke="none" fill="#040404" fill-rule="evenodd"></path><path id="path3" d="M161.000 68.998 C 154.252 70.195,144.281 73.809,143.667 75.281 C 143.593 75.456,143.353 75.600,143.132 75.600 C 142.184 75.600,136.412 80.053,133.211 83.253 C 120.637 95.828,115.447 114.612,119.965 131.200 C 120.174 131.970,120.463 133.050,120.606 133.600 C 120.750 134.150,121.032 135.005,121.233 135.500 C 121.435 135.995,121.761 136.805,121.958 137.300 C 127.555 151.367,140.331 163.017,154.400 166.882 C 160.626 168.592,161.856 168.803,165.306 168.745 L 168.600 168.690 164.800 168.358 C 160.894 168.016,153.696 166.537,153.020 165.937 C 152.811 165.752,152.397 165.600,152.101 165.600 C 150.866 165.600,141.980 160.936,139.143 158.800 C 107.815 135.205,114.184 87.161,150.600 72.377 C 166.932 65.747,186.814 68.928,200.352 80.337 C 203.049 82.610,206.182 85.772,207.549 87.600 C 208.124 88.370,208.713 89.090,208.856 89.200 C 210.023 90.097,213.593 96.964,216.030 103.000 C 218.245 108.487,219.037 122.689,217.486 129.118 C 212.143 151.266,195.009 166.307,172.800 168.343 L 169.000 168.691 171.976 168.746 C 178.623 168.867,189.189 165.598,194.941 161.640 C 195.933 160.958,196.937 160.400,197.172 160.400 C 197.407 160.400,197.600 160.259,197.600 160.086 C 197.600 159.914,198.178 159.431,198.884 159.014 C 207.076 154.175,216.058 139.574,218.345 127.376 C 221.925 108.289,211.027 84.047,195.216 75.923 C 194.657 75.636,194.110 75.307,194.000 75.193 C 193.772 74.955,188.661 72.482,187.300 71.951 C 186.805 71.758,185.995 71.435,185.500 71.233 C 185.005 71.032,184.150 70.750,183.600 70.606 C 183.050 70.463,181.970 70.174,181.200 69.965 C 175.583 68.435,166.594 68.005,161.000 68.998 M321.919 143.098 C 323.744 143.172,326.624 143.172,328.319 143.097 C 330.014 143.022,328.520 142.961,325.000 142.962 C 321.480 142.962,320.094 143.024,321.919 143.098 M334.400 149.200 L 334.400 155.620 340.700 155.510 L 347.000 155.400 347.000 149.200 L 347.000 143.000 340.700 142.890 L 334.400 142.780 334.400 149.200 M346.800 149.200 L 346.800 155.200 340.800 155.200 L 334.800 155.200 334.800 149.200 L 334.800 143.200 340.800 143.200 L 346.800 143.200 346.800 149.200 M321.919 155.498 C 323.744 155.572,326.624 155.572,328.319 155.497 C 330.014 155.422,328.520 155.361,325.000 155.362 C 321.480 155.362,320.094 155.424,321.919 155.498 M321.919 157.898 C 323.744 157.972,326.624 157.972,328.319 157.897 C 330.014 157.822,328.520 157.761,325.000 157.762 C 321.480 157.762,320.094 157.824,321.919 157.898 M334.400 164.000 L 334.400 170.420 340.700 170.310 L 347.000 170.200 347.000 164.000 L 347.000 157.800 340.700 157.690 L 334.400 157.580 334.400 164.000 M346.800 164.000 L 346.800 170.000 340.800 170.000 L 334.800 170.000 334.800 164.000 L 334.800 158.000 340.800 158.000 L 346.800 158.000 346.800 164.000 M321.919 170.298 C 323.744 170.372,326.624 170.372,328.319 170.297 C 330.014 170.222,328.520 170.161,325.000 170.162 C 321.480 170.162,320.094 170.224,321.919 170.298 M223.400 231.648 C 222.520 231.849,220.900 232.207,219.800 232.444 C 201.928 236.286,186.240 251.975,182.448 269.800 C 182.214 270.900,181.838 272.645,181.611 273.677 C 179.084 285.208,183.639 302.034,192.148 312.600 C 200.982 323.569,216.088 331.384,228.000 331.148 C 230.437 331.100,230.324 331.064,226.200 330.568 C 215.238 329.248,208.011 326.178,199.389 319.177 C 196.220 316.603,193.032 313.192,190.812 310.000 C 190.277 309.230,189.740 308.510,189.619 308.400 C 188.772 307.628,185.325 300.430,184.255 297.200 C 176.409 273.518,186.899 247.957,209.000 236.908 C 220.857 230.980,234.489 230.024,247.119 234.234 C 250.768 235.450,257.593 238.713,258.400 239.626 C 258.510 239.751,259.500 240.459,260.600 241.200 C 268.079 246.237,276.389 258.062,278.873 267.200 C 279.790 270.574,280.069 272.058,280.568 276.200 C 281.064 280.324,281.100 280.437,281.148 278.000 C 281.525 258.964,264.233 237.766,244.252 232.769 C 238.162 231.246,227.635 230.680,223.400 231.648 M343.429 243.261 C 343.083 243.955,342.800 244.730,342.800 244.984 C 342.800 246.656,337.878 257.351,334.414 263.203 C 332.251 266.859,326.314 275.373,325.213 276.400 C 325.095 276.510,323.441 278.400,321.539 280.600 C 316.993 285.856,310.015 292.573,305.000 296.521 C 304.560 296.867,303.210 297.938,302.000 298.900 C 300.790 299.862,298.000 301.884,295.800 303.392 C 289.869 307.459,290.249 306.911,291.686 309.334 C 293.067 311.661,294.015 313.309,295.235 315.500 C 296.848 318.395,296.650 318.410,301.784 315.019 C 324.402 300.083,344.686 276.287,352.772 255.200 C 353.489 253.330,354.221 251.440,354.398 251.000 C 356.329 246.196,356.318 245.425,354.317 244.823 C 353.372 244.539,352.150 244.169,351.600 244.000 C 351.050 243.831,349.790 243.473,348.800 243.205 C 347.810 242.936,346.587 242.555,346.081 242.358 C 344.574 241.771,344.091 241.935,343.429 243.261 M345.400 242.800 C 345.536 243.020,346.166 243.200,346.800 243.200 C 347.434 243.200,348.064 243.380,348.200 243.600 C 348.336 243.820,348.804 244.000,349.240 244.000 C 350.875 244.000,355.200 245.660,355.200 246.287 C 355.200 249.396,347.423 266.606,343.553 272.062 C 343.139 272.646,342.800 273.321,342.800 273.562 C 342.800 273.803,342.650 274.000,342.468 274.000 C 342.285 274.000,341.880 274.492,341.568 275.094 C 341.255 275.696,340.782 276.461,340.516 276.794 C 340.250 277.127,339.080 278.679,337.916 280.242 C 332.069 288.094,321.741 298.981,315.000 304.399 C 313.240 305.814,311.710 307.068,311.600 307.186 C 309.965 308.939,297.715 317.305,297.089 317.096 C 296.877 317.026,296.250 316.165,295.695 315.184 C 295.141 314.203,294.327 312.770,293.887 312.000 C 291.232 307.354,290.920 306.400,292.055 306.400 C 294.517 306.400,312.499 291.394,320.140 282.962 C 323.917 278.795,324.067 278.619,326.406 275.600 C 327.172 274.610,327.890 273.710,328.001 273.600 C 330.890 270.725,338.643 257.428,341.293 250.800 C 341.513 250.250,341.819 249.530,341.972 249.200 C 342.126 248.870,342.690 247.206,343.225 245.502 C 344.128 242.631,344.789 241.811,345.400 242.800 M280.674 285.600 C 280.494 287.690,280.165 290.120,279.942 291.000 C 278.352 297.276,277.933 298.544,276.457 301.538 C 275.986 302.494,275.600 303.529,275.600 303.838 C 275.600 304.147,275.441 304.400,275.247 304.400 C 275.052 304.400,274.793 304.715,274.671 305.100 C 274.438 305.837,273.160 308.059,272.774 308.400 C 272.649 308.510,271.959 309.465,271.239 310.522 C 268.731 314.207,263.446 319.296,258.583 322.707 C 255.781 324.673,248.773 327.902,245.200 328.873 C 241.826 329.790,240.342 330.069,236.200 330.568 C 231.904 331.084,231.865 331.098,234.537 331.148 C 257.295 331.577,282.453 306.120,281.131 284.000 C 281.015 282.058,280.962 282.246,280.674 285.600 " stroke="none" fill="#048b04" fill-rule="evenodd"></path><path id="path4" d="M146.800 44.400 C 146.005 44.914,147.004 44.914,148.200 44.400 L 149.000 44.056 148.200 44.034 C 147.760 44.022,147.130 44.187,146.800 44.400 M226.000 69.429 C 226.000 69.727,227.075 70.800,227.375 70.800 C 227.502 70.800,227.382 70.440,227.107 70.000 C 226.638 69.249,226.000 68.920,226.000 69.429 M65.432 83.432 C 64.361 84.414,63.578 85.311,63.691 85.424 C 63.804 85.537,64.748 84.802,65.789 83.789 C 68.251 81.397,67.962 81.108,65.432 83.432 M94.194 83.341 C 86.158 88.384,83.748 90.143,77.414 95.588 C 72.830 99.528,67.593 105.180,61.326 112.951 C 56.022 119.528,47.473 136.021,44.921 144.600 C 44.594 145.700,44.171 146.900,43.981 147.266 C 43.496 148.201,44.121 148.604,47.609 149.607 C 49.254 150.080,51.230 150.651,52.000 150.875 C 55.772 151.971,57.200 151.433,57.200 148.915 C 57.200 148.626,57.366 148.077,57.569 147.695 C 57.772 147.313,58.521 145.470,59.234 143.600 C 66.448 124.674,82.924 105.159,100.300 94.962 C 103.360 93.166,103.364 93.515,100.197 87.194 C 97.273 81.359,97.311 81.384,94.194 83.341 M99.794 87.588 L 102.393 92.775 101.521 93.588 C 101.042 94.034,100.495 94.400,100.307 94.400 C 99.962 94.400,93.974 98.317,93.600 98.787 C 93.490 98.925,92.770 99.469,92.000 99.996 C 77.552 109.876,62.378 130.992,56.414 149.517 C 55.820 151.360,55.485 151.435,52.400 150.421 C 51.850 150.241,50.590 149.866,49.600 149.588 C 43.935 148.001,44.245 148.444,45.684 144.000 C 49.759 131.422,57.434 118.009,66.970 106.800 C 71.073 101.978,80.803 93.009,85.200 89.998 C 85.970 89.470,86.690 88.928,86.800 88.793 C 87.408 88.046,96.476 82.418,97.097 82.402 C 97.151 82.401,98.364 84.734,99.794 87.588 M57.660 91.451 C 57.143 92.002,56.817 92.550,56.936 92.669 C 57.152 92.885,59.200 91.030,59.200 90.618 C 59.200 90.147,58.556 90.495,57.660 91.451 M167.000 194.400 C 166.864 194.620,167.123 194.800,167.576 194.800 C 168.029 194.800,168.400 194.620,168.400 194.400 C 168.400 194.180,168.141 194.000,167.824 194.000 C 167.507 194.000,167.136 194.180,167.000 194.400 M116.385 216.054 C 115.279 217.183,114.451 218.184,114.545 218.278 C 114.639 218.372,115.725 217.448,116.958 216.224 C 118.191 215.001,119.019 214.000,118.798 214.000 C 118.577 214.000,117.491 214.924,116.385 216.054 M25.102 240.200 C 25.207 240.750,25.362 241.200,25.447 241.200 C 25.531 241.200,25.600 240.750,25.600 240.200 C 25.600 239.650,25.445 239.200,25.255 239.200 C 25.066 239.200,24.997 239.650,25.102 240.200 M56.000 250.000 L 56.000 256.400 62.400 256.400 L 68.800 256.400 68.800 250.000 L 68.800 243.600 62.400 243.600 L 56.000 243.600 56.000 250.000 M68.400 250.000 L 68.400 256.000 62.400 256.000 L 56.400 256.000 56.400 250.000 L 56.400 244.000 62.400 244.000 L 68.400 244.000 68.400 250.000 M94.300 267.333 C 93.822 268.499,93.920 270.640,94.427 270.133 C 94.662 269.898,94.797 269.007,94.727 268.153 C 94.633 267.006,94.522 266.792,94.300 267.333 M52.000 289.429 C 52.000 289.727,53.075 290.800,53.375 290.800 C 53.502 290.800,53.382 290.440,53.107 290.000 C 52.638 289.249,52.000 288.920,52.000 289.429 M56.800 295.018 C 56.800 295.432,58.849 297.284,59.067 297.067 C 59.187 296.947,58.824 296.388,58.261 295.824 C 57.265 294.828,56.800 294.572,56.800 295.018 M60.257 298.934 C 60.886 299.672,61.463 300.226,61.539 300.165 C 61.776 299.977,60.231 298.047,59.657 297.813 C 59.359 297.692,59.629 298.196,60.257 298.934 M62.484 301.300 C 63.911 302.619,64.800 303.301,64.800 303.078 C 64.800 302.723,62.669 300.800,62.276 300.800 C 62.093 300.800,62.186 301.025,62.484 301.300 M65.834 304.437 C 66.250 304.897,66.951 305.467,67.391 305.702 C 67.933 305.992,67.806 305.722,66.997 304.865 C 65.690 303.480,64.607 303.082,65.834 304.437 M114.800 319.788 C 115.944 321.291,118.857 324.076,119.067 323.867 C 119.276 323.657,116.491 320.744,114.988 319.600 C 114.240 319.030,114.230 319.040,114.800 319.788 M88.624 321.787 C 89.051 322.110,89.580 322.375,89.800 322.375 C 90.020 322.375,89.851 322.110,89.424 321.787 C 88.996 321.464,88.467 321.200,88.247 321.200 C 88.027 321.200,88.196 321.464,88.624 321.787 M93.194 324.382 C 93.741 324.802,94.268 325.066,94.365 324.969 C 94.591 324.742,93.129 323.627,92.600 323.622 C 92.380 323.620,92.647 323.961,93.194 324.382 M161.700 342.676 C 162.085 342.776,162.715 342.776,163.100 342.676 C 163.485 342.575,163.170 342.493,162.400 342.493 C 161.630 342.493,161.315 342.575,161.700 342.676 M164.000 343.171 C 164.000 343.375,163.685 343.624,163.300 343.724 C 162.915 343.825,163.185 343.928,163.900 343.954 C 164.810 343.986,165.200 343.820,165.200 343.400 C 165.200 343.070,164.930 342.800,164.600 342.800 C 164.270 342.800,164.000 342.967,164.000 343.171 " stroke="none" fill="#74f474" fill-rule="evenodd"></path></g></svg>