<svg height="512" viewBox="0 0 64 64" width="512" xmlns="http://www.w3.org/2000/svg" xmlns:xlink="http://www.w3.org/1999/xlink"><linearGradient id="linear-gradient" gradientUnits="userSpaceOnUse" x1="-1" x2="64.192" y1="31" y2="31"><stop offset="0" stop-color="#2dced9"/><stop offset=".155" stop-color="#45cdc4"/><stop offset=".484" stop-color="#83ca8d"/><stop offset=".956" stop-color="#e5c636"/><stop offset="1" stop-color="#efc62d"/></linearGradient><linearGradient id="linear-gradient-2" x2="64.192" xlink:href="#linear-gradient" y1="33" y2="33"/><linearGradient id="linear-gradient-3" x2="64.192" xlink:href="#linear-gradient" y1="19" y2="19"/><linearGradient id="linear-gradient-4" x2="64.192" xlink:href="#linear-gradient" y1="45" y2="45"/><linearGradient id="linear-gradient-5" x2="64.192" xlink:href="#linear-gradient" y1="44.797" y2="44.797"/><linearGradient id="linear-gradient-6" x2="64.192" xlink:href="#linear-gradient" y1="18.69" y2="18.69"/><linearGradient id="linear-gradient-7" x2="64.192" xlink:href="#linear-gradient" y1="26" y2="26"/><linearGradient id="linear-gradient-8" x2="64.192" xlink:href="#linear-gradient" y1="30" y2="30"/><linearGradient id="linear-gradient-9" x2="64.192" xlink:href="#linear-gradient" y1="40" y2="40"/><g id="Gradient_outline" data-name="Gradient outline"><path d="m27 32a13 13 0 0 0 0-26 25 25 0 0 0 0 50 1 1 0 0 0 0-2 11 11 0 0 1 0-22zm-13 11a12.953 12.953 0 0 0 3.633 9.005 23 23 0 0 1 9.367-44.005 11 11 0 0 1 0 22 13.015 13.015 0 0 0 -13 13z" fill="url(#linear-gradient)"/><path d="m37 8a1 1 0 0 0 0 2 11 11 0 0 1 0 22 13 13 0 0 0 0 26 25 25 0 0 0 0-50zm0 48a11 11 0 0 1 0-22 12.993 12.993 0 0 0 9.367-22 23 23 0 0 1 -9.367 44z" fill="url(#linear-gradient-2)"/><path d="m36 19a9 9 0 1 0 -9 9 9.01 9.01 0 0 0 9-9zm-16 0a7 7 0 1 1 7 7 7.008 7.008 0 0 1 -7-7z" fill="url(#linear-gradient-3)"/><path d="m37 36a9 9 0 1 0 9 9 9.01 9.01 0 0 0 -9-9zm0 16a7 7 0 1 1 7-7 7.008 7.008 0 0 1 -7 7z" fill="url(#linear-gradient-4)"/><path d="m46.5 49.132.993 1.736c.3-.172 7.378-4.286 9.465-11.594l-1.922-.548c-1.858 6.51-8.467 10.368-8.536 10.406z" fill="url(#linear-gradient-5)"/><path d="m15.553 13.105a18.037 18.037 0 0 0 -8.514 10.621l1.922.548a16.3 16.3 0 0 1 7.488-9.38l-.449-.894z" fill="url(#linear-gradient-6)"/><path d="m54 25h2v2h-2z" fill="url(#linear-gradient-7)"/><path d="m51 29h2v2h-2z" fill="url(#linear-gradient-8)"/><path d="m9 39h2v2h-2z" fill="url(#linear-gradient-9)"/></g></svg>