<?xml version="1.0" standalone="no"?>
<!DOCTYPE svg PUBLIC "-//W3C//DTD SVG 20010904//EN"
 "http://www.w3.org/TR/2001/REC-SVG-20010904/DTD/svg10.dtd">
<svg version="1.0" xmlns="http://www.w3.org/2000/svg"
 width="700.000000pt" height="700.000000pt" viewBox="0 0 700.000000 700.000000"
 preserveAspectRatio="xMidYMid meet">
<metadata>
Created by potrace 1.11, written by Peter Selinger 2001-2013
</metadata>
<g transform="translate(0.000000,700.000000) scale(0.100000,-0.100000)"
fill="#000000" stroke="none">
<path d="M2757 6243 c-2 -1 -93 -11 -164 -17 -119 -11 -460 -100 -578 -151
-16 -8 -54 -23 -84 -35 -120 -47 -419 -209 -429 -232 -2 -5 -9 -8 -16 -8 -7 0
-21 -8 -32 -18 -10 -10 -38 -31 -60 -47 -82 -59 -150 -113 -184 -146 -19 -18
-38 -33 -41 -34 -7 0 -181 -179 -179 -183 1 -2 -20 -27 -47 -56 -85 -91 -222
-290 -298 -431 -63 -118 -60 -112 -90 -175 -43 -88 -114 -285 -140 -385 -5
-16 -9 -34 -11 -40 -2 -5 -5 -21 -8 -35 -5 -21 -14 -61 -22 -92 -1 -5 -3 -9
-4 -10 -1 -2 -3 -14 -5 -28 -1 -14 -8 -54 -14 -90 -23 -129 -35 -593 -18 -720
11 -82 30 -193 42 -245 1 -5 5 -28 9 -50 4 -22 10 -47 13 -55 3 -8 7 -19 8
-25 2 -5 10 -37 19 -70 10 -33 18 -65 20 -72 1 -7 5 -16 9 -19 4 -4 7 -14 7
-21 0 -22 91 -244 117 -285 13 -21 21 -38 17 -38 -3 0 5 -15 18 -32 13 -18 22
-35 21 -38 -1 -3 19 -40 45 -83 26 -43 52 -86 57 -95 48 -80 156 -223 219
-289 27 -29 46 -53 42 -53 -4 0 36 -43 87 -95 52 -52 97 -95 101 -95 4 0 19
-12 34 -26 45 -43 265 -210 300 -228 17 -9 32 -21 32 -26 0 -6 8 -10 19 -10
10 0 30 -9 44 -20 32 -25 285 -151 352 -175 28 -10 55 -22 60 -25 10 -7 140
-52 161 -56 6 -1 38 -10 70 -19 33 -9 68 -18 79 -20 11 -1 31 -6 45 -9 23 -6
150 -28 240 -42 82 -12 270 -14 270 -3 0 6 -6 9 -14 6 -8 -3 -16 -3 -19 0 -3
3 -30 7 -59 10 -86 7 -97 8 -104 16 -4 4 -19 7 -33 7 -14 1 -57 12 -96 26 -38
13 -74 25 -80 27 -24 5 -222 111 -241 128 -11 10 -24 19 -28 19 -28 0 -255
221 -319 312 -53 74 -135 228 -166 313 -23 59 -41 131 -62 233 -13 69 -18 308
-7 380 31 214 122 433 253 611 5 8 43 48 83 90 40 42 76 81 80 86 4 6 30 28
57 50 28 21 52 42 55 45 3 3 34 24 70 46 118 73 262 133 393 165 92 22 193 34
382 43 87 5 202 21 250 36 285 89 424 169 601 345 181 180 300 392 354 630 7
28 14 59 17 70 3 11 8 99 10 195 5 180 -5 274 -43 410 -9 30 -18 63 -20 74 -3
19 -104 227 -126 260 -20 30 -25 37 -68 93 -22 29 -40 55 -40 58 0 15 -185
185 -232 213 -15 9 -28 20 -28 24 0 4 -5 8 -11 8 -6 0 -29 13 -52 29 -98 66
-218 118 -366 157 -95 25 -113 26 -464 37 -32 1 -59 1 -60 0z m-72 -493 c3 -5
1 -10 -4 -10 -6 0 -11 5 -11 10 0 6 2 10 4 10 3 0 8 -4 11 -10z m-225 -114 c0
-2 -8 -10 -17 -17 -16 -13 -17 -12 -4 4 13 16 21 21 21 13z m446 -1588 c3 -4
-1 -5 -10 -4 -8 1 -18 5 -22 8 -3 4 1 5 10 4 8 -1 18 -5 22 -8z m62 -5 c-10
-2 -26 -2 -35 0 -10 3 -2 5 17 5 19 0 27 -2 18 -5z"/>
<path d="M4110 6010 c0 -5 6 -11 13 -11 6 -1 26 -2 42 -4 38 -3 94 -12 165
-25 30 -6 61 -11 68 -12 6 -1 12 -5 12 -10 0 -4 3 -7 8 -6 17 4 74 -18 177
-68 129 -63 167 -84 178 -101 4 -7 14 -13 22 -13 8 0 74 -60 147 -133 142
-142 152 -153 170 -192 6 -14 15 -25 19 -25 10 0 139 -261 139 -282 0 -9 4
-19 9 -22 4 -3 12 -20 16 -38 4 -18 11 -51 16 -73 6 -22 13 -58 17 -80 9 -51
9 -390 0 -430 -4 -16 -10 -43 -13 -60 -3 -16 -11 -46 -17 -65 -7 -19 -13 -39
-14 -45 -9 -47 -107 -248 -162 -335 -62 -97 -266 -301 -357 -356 -81 -49 -276
-144 -297 -144 -9 0 -20 -5 -23 -10 -4 -6 -10 -8 -15 -5 -5 3 -11 1 -14 -4 -5
-8 -65 -22 -93 -23 -5 0 -16 -4 -26 -10 -17 -9 -190 -25 -342 -32 -78 -4 -224
-25 -240 -34 -5 -4 -12 -7 -15 -7 -131 -16 -354 -131 -505 -259 -77 -65 -168
-160 -203 -211 -15 -22 -29 -42 -32 -45 -3 -3 -29 -41 -56 -85 -46 -72 -108
-209 -118 -260 -3 -11 -11 -46 -20 -78 -8 -32 -19 -77 -23 -100 -10 -51 -10
-416 -1 -472 11 -69 46 -199 68 -256 23 -61 89 -191 100 -199 4 -3 13 -16 20
-30 25 -47 156 -205 219 -262 113 -105 359 -249 481 -283 3 0 30 -8 60 -17 98
-30 111 -31 370 -33 221 -2 295 1 420 20 155 23 460 113 598 177 37 16 90 41
119 54 28 13 55 24 58 24 6 0 133 74 210 123 90 56 199 137 320 237 87 72 247
242 343 365 87 111 93 121 186 273 70 114 187 352 200 407 2 6 8 22 14 36 9
23 39 117 40 129 0 3 3 12 6 20 10 30 34 126 46 180 47 217 52 273 53 575 1
271 -8 392 -38 515 -3 14 -8 36 -11 50 -17 93 -18 95 -75 280 -18 58 -34 107
-34 110 -4 13 -20 51 -51 117 -19 39 -34 74 -34 78 0 7 -99 181 -160 280 -39
65 -131 196 -155 221 -5 6 -35 39 -65 74 -30 35 -73 84 -95 108 -70 78 -343
312 -364 312 -6 0 -11 4 -11 8 0 5 -44 36 -97 70 -157 97 -188 114 -368 197
-155 72 -410 153 -525 168 -30 4 -108 17 -200 34 -59 10 -280 13 -280 3z
m1497 -1516 c-3 -3 -12 -4 -19 -1 -8 3 -5 6 6 6 11 1 17 -2 13 -5z m96 -1 c-7
-2 -19 -2 -25 0 -7 3 -2 5 12 5 14 0 19 -2 13 -5z m74 1 c-3 -3 -12 -4 -19 -1
-8 3 -5 6 6 6 11 1 17 -2 13 -5z m-163 -216 c-3 -4 -11 -5 -19 -1 -21 7 -19
12 4 10 11 0 18 -5 15 -9z m281 2 c-3 -5 -12 -10 -18 -10 -7 0 -6 4 3 10 19
12 23 12 15 0z m-1715 -1336 c0 -8 -19 -13 -24 -6 -3 5 1 9 9 9 8 0 15 -2 15
-3z m461 -221 c13 -16 12 -17 -3 -4 -17 13 -22 21 -14 21 2 0 10 -8 17 -17z
m284 -629 c1 -19 -2 -34 -7 -34 -4 0 -7 18 -5 39 2 47 11 44 12 -5z m-205
-578 c0 -2 -8 -10 -17 -17 -16 -13 -17 -12 -4 4 13 16 21 21 21 13z m-40 -40
c0 -2 -8 -10 -17 -17 -16 -13 -17 -12 -4 4 13 16 21 21 21 13z m-65 -66 c-10
-11 -21 -18 -23 -15 -3 3 3 12 14 20 27 20 30 18 9 -5z m-35 -24 c0 -2 -8 -10
-17 -17 -16 -13 -17 -12 -4 4 13 16 21 21 21 13z m-485 -176 c-3 -5 -25 -9
-48 -8 l-42 1 45 7 c25 4 46 8 48 8 2 1 0 -2 -3 -8z"/>
</g>
</svg>
